<svg xmlns="http://www.w3.org/2000/svg" xmlns:xlink="http://www.w3.org/1999/xlink" width="500" zoomAndPan="magnify" viewBox="0 0 375 374.999991" height="500" preserveAspectRatio="xMidYMid meet" version="1.0"><defs><g/><clipPath id="d9c650db1c"><path d="M 112.226562 69.355469 L 187.226562 69.355469 L 187.226562 220.105469 L 112.226562 220.105469 Z M 112.226562 69.355469 " clip-rule="nonzero"/></clipPath><clipPath id="5ba8dad199"><path d="M 198.078125 131.515625 L 267.078125 131.515625 L 267.078125 269.515625 L 198.078125 269.515625 Z M 198.078125 131.515625 " clip-rule="nonzero"/></clipPath><clipPath id="fef1834a09"><path d="M 0.078125 0.726562 L 69.078125 0.726562 L 69.078125 138.515625 L 0.078125 138.515625 Z M 0.078125 0.726562 " clip-rule="nonzero"/></clipPath><clipPath id="132068a7eb"><rect x="0" width="70" y="0" height="139"/></clipPath><clipPath id="242523e728"><path d="M 197.972656 69.558594 L 259.929688 69.558594 L 259.929688 131.515625 L 197.972656 131.515625 Z M 197.972656 69.558594 " clip-rule="nonzero"/></clipPath><clipPath id="b20796e2f9"><path d="M 228.953125 69.558594 C 211.84375 69.558594 197.972656 83.425781 197.972656 100.535156 C 197.972656 117.644531 211.84375 131.515625 228.953125 131.515625 C 246.058594 131.515625 259.929688 117.644531 259.929688 100.535156 C 259.929688 83.425781 246.058594 69.558594 228.953125 69.558594 Z M 228.953125 69.558594 " clip-rule="nonzero"/></clipPath><clipPath id="723718c4c7"><path d="M 0.972656 0.558594 L 62.929688 0.558594 L 62.929688 62.515625 L 0.972656 62.515625 Z M 0.972656 0.558594 " clip-rule="nonzero"/></clipPath><clipPath id="82c7d4dec5"><path d="M 31.953125 0.558594 C 14.84375 0.558594 0.972656 14.425781 0.972656 31.535156 C 0.972656 48.644531 14.84375 62.515625 31.953125 62.515625 C 49.058594 62.515625 62.929688 48.644531 62.929688 31.535156 C 62.929688 14.425781 49.058594 0.558594 31.953125 0.558594 Z M 31.953125 0.558594 " clip-rule="nonzero"/></clipPath><clipPath id="066d66062e"><rect x="0" width="63" y="0" height="63"/></clipPath><clipPath id="a3b121a4e3"><path d="M 112.492188 205.847656 L 187.492188 205.847656 L 187.492188 269.597656 L 112.492188 269.597656 Z M 112.492188 205.847656 " clip-rule="nonzero"/></clipPath><clipPath id="446c547251"><path d="M 25 14 L 48 14 L 48 44.960938 L 25 44.960938 Z M 25 14 " clip-rule="nonzero"/></clipPath><clipPath id="af952a263b"><rect x="0" width="319" y="0" height="45"/></clipPath></defs><g clip-path="url(#d9c650db1c)"><path fill="#577de0" d="M 112.207031 144.816406 C 112.207031 146.046875 112.238281 147.277344 112.296875 148.507812 C 112.359375 149.738281 112.449219 150.96875 112.570312 152.195312 C 112.691406 153.417969 112.839844 154.640625 113.023438 155.859375 C 113.203125 157.078125 113.414062 158.292969 113.652344 159.5 C 113.894531 160.707031 114.164062 161.910156 114.464844 163.105469 C 114.761719 164.300781 115.089844 165.488281 115.449219 166.664062 C 115.804688 167.84375 116.191406 169.011719 116.605469 170.171875 C 117.023438 171.332031 117.464844 172.480469 117.9375 173.621094 C 118.40625 174.757812 118.90625 175.882812 119.433594 176.996094 C 119.960938 178.109375 120.515625 179.210938 121.09375 180.296875 C 121.675781 181.382812 122.28125 182.457031 122.914062 183.511719 C 123.550781 184.570312 124.207031 185.609375 124.890625 186.632812 C 125.578125 187.65625 126.285156 188.664062 127.019531 189.652344 C 127.753906 190.644531 128.511719 191.613281 129.292969 192.566406 C 130.074219 193.519531 130.878906 194.449219 131.707031 195.363281 C 132.53125 196.277344 133.382812 197.167969 134.253906 198.039062 C 135.125 198.910156 136.015625 199.757812 136.929688 200.585938 C 137.839844 201.414062 138.773438 202.21875 139.726562 203 C 140.679688 203.78125 141.648438 204.539062 142.640625 205.273438 C 143.628906 206.007812 144.636719 206.714844 145.660156 207.398438 C 146.683594 208.085938 147.722656 208.742188 148.78125 209.375 C 149.835938 210.011719 150.910156 210.617188 151.996094 211.199219 C 153.082031 211.777344 154.179688 212.332031 155.292969 212.859375 C 156.410156 213.386719 157.535156 213.882812 158.671875 214.355469 C 159.808594 214.828125 160.960938 215.269531 162.121094 215.683594 C 163.277344 216.101562 164.449219 216.488281 165.628906 216.84375 C 166.804688 217.203125 167.992188 217.53125 169.1875 217.828125 C 170.382812 218.128906 171.585938 218.398438 172.792969 218.640625 C 174 218.878906 175.214844 219.089844 176.433594 219.269531 C 177.652344 219.453125 178.875 219.601562 180.097656 219.722656 C 181.324219 219.84375 182.554688 219.933594 183.785156 219.996094 C 185.015625 220.054688 186.246094 220.085938 187.476562 220.085938 L 187.476562 69.53125 C 186.246094 69.53125 185.011719 69.5625 183.78125 69.621094 C 182.550781 69.683594 181.324219 69.773438 180.097656 69.894531 C 178.871094 70.015625 177.648438 70.164062 176.429688 70.347656 C 175.210938 70.527344 174 70.738281 172.789062 70.976562 C 171.582031 71.21875 170.378906 71.488281 169.183594 71.789062 C 167.992188 72.085938 166.804688 72.414062 165.625 72.773438 C 164.445312 73.132812 163.277344 73.515625 162.117188 73.933594 C 160.957031 74.347656 159.808594 74.789062 158.667969 75.261719 C 157.53125 75.734375 156.40625 76.234375 155.292969 76.761719 C 154.175781 77.285156 153.078125 77.839844 151.992188 78.421875 C 150.90625 79.003906 149.832031 79.609375 148.777344 80.242188 C 147.71875 80.875 146.679688 81.535156 145.65625 82.21875 C 144.628906 82.902344 143.625 83.613281 142.632812 84.347656 C 141.644531 85.082031 140.671875 85.839844 139.722656 86.621094 C 138.769531 87.402344 137.835938 88.207031 136.921875 89.035156 C 136.011719 89.863281 135.117188 90.710938 134.246094 91.582031 C 133.375 92.453125 132.527344 93.347656 131.699219 94.257812 C 130.875 95.171875 130.070312 96.105469 129.289062 97.058594 C 128.503906 98.007812 127.75 98.980469 127.015625 99.96875 C 126.28125 100.960938 125.570312 101.964844 124.886719 102.992188 C 124.203125 104.015625 123.542969 105.054688 122.910156 106.113281 C 122.277344 107.167969 121.671875 108.242188 121.089844 109.328125 C 120.507812 110.414062 119.957031 111.515625 119.429688 112.628906 C 118.902344 113.742188 118.402344 114.867188 117.933594 116.007812 C 117.460938 117.144531 117.019531 118.292969 116.601562 119.453125 C 116.1875 120.613281 115.800781 121.785156 115.445312 122.964844 C 115.085938 124.140625 114.757812 125.328125 114.460938 126.523438 C 114.160156 127.71875 113.890625 128.921875 113.652344 130.128906 C 113.410156 131.335938 113.199219 132.550781 113.019531 133.769531 C 112.839844 134.988281 112.6875 136.210938 112.566406 137.4375 C 112.449219 138.664062 112.355469 139.890625 112.296875 141.121094 C 112.238281 142.351562 112.207031 143.582031 112.207031 144.816406 Z M 112.207031 144.816406 " fill-opacity="1" fill-rule="nonzero"/></g><g clip-path="url(#5ba8dad199)"><g transform="matrix(1, 0, 0, 1, 198, 131)"><g clip-path="url(#132068a7eb)"><g clip-path="url(#fef1834a09)"><path fill="#67686a" d="M 69.09375 69.609375 C 69.09375 70.738281 69.066406 71.871094 69.011719 73 C 68.957031 74.128906 68.871094 75.257812 68.761719 76.382812 C 68.652344 77.507812 68.511719 78.628906 68.347656 79.75 C 68.179688 80.867188 67.988281 81.980469 67.765625 83.089844 C 67.546875 84.199219 67.296875 85.300781 67.023438 86.398438 C 66.75 87.496094 66.449219 88.585938 66.117188 89.667969 C 65.789062 90.75 65.4375 91.824219 65.054688 92.890625 C 64.675781 93.953125 64.265625 95.007812 63.835938 96.054688 C 63.402344 97.097656 62.945312 98.132812 62.460938 99.15625 C 61.976562 100.175781 61.46875 101.1875 60.933594 102.183594 C 60.402344 103.183594 59.84375 104.164062 59.261719 105.136719 C 58.679688 106.105469 58.078125 107.0625 57.449219 108 C 56.820312 108.941406 56.167969 109.867188 55.496094 110.773438 C 54.820312 111.683594 54.125 112.574219 53.410156 113.449219 C 52.691406 114.324219 51.953125 115.179688 51.191406 116.015625 C 50.433594 116.855469 49.652344 117.671875 48.855469 118.472656 C 48.054688 119.273438 47.234375 120.050781 46.398438 120.8125 C 45.558594 121.570312 44.703125 122.308594 43.828125 123.027344 C 42.953125 123.746094 42.0625 124.441406 41.15625 125.113281 C 40.246094 125.789062 39.324219 126.4375 38.382812 127.066406 C 37.441406 127.695312 36.488281 128.300781 35.515625 128.882812 C 34.546875 129.464844 33.5625 130.019531 32.566406 130.554688 C 31.566406 131.085938 30.558594 131.59375 29.535156 132.078125 C 28.511719 132.5625 27.480469 133.019531 26.433594 133.453125 C 25.390625 133.886719 24.335938 134.292969 23.269531 134.675781 C 22.207031 135.054688 21.132812 135.410156 20.050781 135.738281 C 18.96875 136.066406 17.878906 136.367188 16.78125 136.644531 C 15.683594 136.917969 14.582031 137.164062 13.472656 137.386719 C 12.363281 137.605469 11.246094 137.800781 10.128906 137.964844 C 9.011719 138.132812 7.886719 138.269531 6.761719 138.382812 C 5.636719 138.492188 4.507812 138.574219 3.378906 138.628906 C 2.25 138.6875 1.121094 138.714844 -0.0117188 138.714844 L -0.0117188 0.488281 C 1.121094 0.488281 2.25 0.515625 3.378906 0.574219 C 4.511719 0.628906 5.636719 0.710938 6.761719 0.820312 C 7.890625 0.933594 9.011719 1.070312 10.128906 1.238281 C 11.25 1.402344 12.363281 1.597656 13.472656 1.816406 C 14.582031 2.039062 15.683594 2.285156 16.78125 2.5625 C 17.878906 2.835938 18.96875 3.136719 20.050781 3.464844 C 21.132812 3.792969 22.207031 4.148438 23.273438 4.53125 C 24.339844 4.910156 25.394531 5.316406 26.4375 5.75 C 27.484375 6.183594 28.515625 6.640625 29.539062 7.125 C 30.5625 7.609375 31.570312 8.117188 32.570312 8.652344 C 33.566406 9.183594 34.550781 9.742188 35.519531 10.324219 C 36.492188 10.90625 37.445312 11.511719 38.386719 12.136719 C 39.328125 12.765625 40.25 13.417969 41.160156 14.09375 C 42.066406 14.765625 42.960938 15.460938 43.832031 16.179688 C 44.707031 16.898438 45.5625 17.636719 46.402344 18.394531 C 47.242188 19.15625 48.058594 19.933594 48.859375 20.734375 C 49.660156 21.535156 50.4375 22.355469 51.199219 23.191406 C 51.957031 24.03125 52.695312 24.886719 53.414062 25.761719 C 54.128906 26.636719 54.828125 27.527344 55.5 28.433594 C 56.171875 29.34375 56.824219 30.269531 57.453125 31.207031 C 58.082031 32.148438 58.6875 33.105469 59.265625 34.074219 C 59.847656 35.046875 60.40625 36.03125 60.9375 37.027344 C 61.472656 38.023438 61.980469 39.035156 62.464844 40.058594 C 62.949219 41.078125 63.40625 42.113281 63.839844 43.160156 C 64.269531 44.203125 64.679688 45.257812 65.058594 46.324219 C 65.441406 47.390625 65.792969 48.460938 66.121094 49.546875 C 66.449219 50.628906 66.75 51.71875 67.027344 52.816406 C 67.300781 53.910156 67.546875 55.015625 67.769531 56.125 C 67.988281 57.234375 68.183594 58.347656 68.347656 59.46875 C 68.515625 60.585938 68.652344 61.707031 68.761719 62.835938 C 68.875 63.960938 68.957031 65.085938 69.011719 66.21875 C 69.066406 67.347656 69.09375 68.476562 69.09375 69.609375 Z M 69.09375 69.609375 " fill-opacity="1" fill-rule="nonzero"/></g></g></g></g><g clip-path="url(#242523e728)"><g clip-path="url(#b20796e2f9)"><g transform="matrix(1, 0, 0, 1, 197, 69)"><g clip-path="url(#066d66062e)"><g clip-path="url(#723718c4c7)"><g clip-path="url(#82c7d4dec5)"><path fill="#252525" d="M 0.972656 0.558594 L 62.929688 0.558594 L 62.929688 62.515625 L 0.972656 62.515625 Z M 0.972656 0.558594 " fill-opacity="1" fill-rule="nonzero"/></g></g></g></g></g></g><g clip-path="url(#a3b121a4e3)"><path fill="#f0f3fc" d="M 187.511719 281.136719 C 187.511719 279.90625 187.480469 278.675781 187.421875 277.445312 C 187.359375 276.214844 187.269531 274.984375 187.148438 273.757812 C 187.027344 272.535156 186.878906 271.3125 186.695312 270.09375 C 186.515625 268.875 186.304688 267.660156 186.066406 266.453125 C 185.824219 265.246094 185.554688 264.042969 185.257812 262.847656 C 184.957031 261.652344 184.628906 260.464844 184.269531 259.289062 C 183.914062 258.109375 183.527344 256.941406 183.113281 255.78125 C 182.695312 254.621094 182.253906 253.472656 181.78125 252.332031 C 181.3125 251.195312 180.8125 250.070312 180.285156 248.957031 C 179.757812 247.839844 179.203125 246.742188 178.625 245.65625 C 178.042969 244.570312 177.4375 243.496094 176.804688 242.441406 C 176.167969 241.382812 175.511719 240.34375 174.828125 239.320312 C 174.140625 238.296875 173.433594 237.289062 172.699219 236.300781 C 171.964844 235.308594 171.207031 234.339844 170.425781 233.386719 C 169.644531 232.433594 168.839844 231.503906 168.011719 230.589844 C 167.1875 229.675781 166.335938 228.785156 165.464844 227.914062 C 164.59375 227.042969 163.703125 226.195312 162.789062 225.367188 C 161.878906 224.539062 160.945312 223.734375 159.992188 222.953125 C 159.039062 222.171875 158.070312 221.414062 157.082031 220.679688 C 156.089844 219.945312 155.085938 219.238281 154.058594 218.554688 C 153.035156 217.867188 151.996094 217.210938 150.9375 216.578125 C 149.882812 215.941406 148.808594 215.335938 147.722656 214.753906 C 146.636719 214.175781 145.539062 213.621094 144.425781 213.09375 C 143.3125 212.566406 142.183594 212.070312 141.046875 211.597656 C 139.910156 211.125 138.757812 210.683594 137.601562 210.269531 C 136.441406 209.851562 135.269531 209.464844 134.09375 209.109375 C 132.914062 208.75 131.726562 208.421875 130.53125 208.125 C 129.335938 207.824219 128.136719 207.554688 126.925781 207.3125 C 125.71875 207.074219 124.503906 206.863281 123.285156 206.683594 C 122.066406 206.5 120.847656 206.351562 119.621094 206.230469 C 118.394531 206.109375 117.164062 206.019531 115.9375 205.957031 C 114.707031 205.898438 113.472656 205.867188 112.242188 205.867188 L 112.242188 356.421875 C 113.472656 356.421875 114.707031 356.390625 115.9375 356.332031 C 117.167969 356.269531 118.394531 356.179688 119.621094 356.058594 C 120.847656 355.9375 122.070312 355.789062 123.289062 355.605469 C 124.507812 355.425781 125.71875 355.214844 126.929688 354.976562 C 128.136719 354.734375 129.339844 354.464844 130.535156 354.164062 C 131.730469 353.867188 132.914062 353.539062 134.09375 353.179688 C 135.273438 352.820312 136.441406 352.4375 137.601562 352.019531 C 138.761719 351.605469 139.910156 351.164062 141.050781 350.691406 C 142.1875 350.21875 143.3125 349.71875 144.429688 349.191406 C 145.542969 348.667969 146.640625 348.113281 147.726562 347.53125 C 148.816406 346.949219 149.886719 346.34375 150.941406 345.710938 C 152 345.078125 153.039062 344.417969 154.066406 343.734375 C 155.089844 343.046875 156.09375 342.339844 157.085938 341.605469 C 158.074219 340.871094 159.046875 340.113281 159.996094 339.332031 C 160.949219 338.550781 161.882812 337.746094 162.796875 336.917969 C 163.707031 336.089844 164.601562 335.242188 165.472656 334.371094 C 166.34375 333.5 167.191406 332.605469 168.019531 331.695312 C 168.847656 330.78125 169.648438 329.847656 170.433594 328.894531 C 171.214844 327.945312 171.972656 326.972656 172.703125 325.984375 C 173.4375 324.992188 174.148438 323.984375 174.832031 322.960938 C 175.515625 321.9375 176.175781 320.898438 176.808594 319.839844 C 177.441406 318.78125 178.046875 317.710938 178.628906 316.625 C 179.210938 315.539062 179.761719 314.4375 180.289062 313.324219 C 180.816406 312.210938 181.316406 311.085938 181.785156 309.945312 C 182.257812 308.808594 182.699219 307.660156 183.117188 306.5 C 183.53125 305.339844 183.917969 304.167969 184.273438 302.988281 C 184.632812 301.8125 184.960938 300.625 185.257812 299.429688 C 185.558594 298.234375 185.828125 297.03125 186.066406 295.824219 C 186.308594 294.617188 186.519531 293.402344 186.699219 292.183594 C 186.878906 290.964844 187.03125 289.742188 187.152344 288.515625 C 187.269531 287.289062 187.363281 286.0625 187.421875 284.832031 C 187.480469 283.601562 187.511719 282.371094 187.511719 281.136719 Z M 187.511719 281.136719 " fill-opacity="1" fill-rule="nonzero"/></g><g transform="matrix(1, 0, 0, 1, 27, 280)"><g clip-path="url(#af952a263b)"><g fill="#000000" fill-opacity="1"><g transform="translate(0.897784, 35.703071)"><g><path d="M 25.421875 -8.03125 C 25.421875 -5.300781 24.410156 -3.210938 22.390625 -1.765625 C 20.367188 -0.328125 17.398438 0.390625 13.484375 0.390625 C 9.910156 0.390625 7.109375 -0.238281 5.078125 -1.5 C 3.046875 -2.769531 1.742188 -4.6875 1.171875 -7.25 L 6.796875 -8.1875 C 7.179688 -6.707031 7.925781 -5.632812 9.03125 -4.96875 C 10.132812 -4.300781 11.671875 -3.96875 13.640625 -3.96875 C 17.710938 -3.96875 19.75 -5.207031 19.75 -7.6875 C 19.75 -8.476562 19.515625 -9.128906 19.046875 -9.640625 C 18.578125 -10.160156 17.914062 -10.59375 17.0625 -10.9375 C 16.21875 -11.28125 14.585938 -11.691406 12.171875 -12.171875 C 10.085938 -12.660156 8.640625 -13.050781 7.828125 -13.34375 C 7.015625 -13.644531 6.273438 -13.992188 5.609375 -14.390625 C 4.953125 -14.796875 4.390625 -15.28125 3.921875 -15.84375 C 3.460938 -16.414062 3.101562 -17.082031 2.84375 -17.84375 C 2.59375 -18.613281 2.46875 -19.492188 2.46875 -20.484375 C 2.46875 -22.992188 3.410156 -24.914062 5.296875 -26.25 C 7.191406 -27.59375 9.945312 -28.265625 13.5625 -28.265625 C 17.007812 -28.265625 19.597656 -27.722656 21.328125 -26.640625 C 23.066406 -25.566406 24.1875 -23.785156 24.6875 -21.296875 L 19.03125 -20.515625 C 18.738281 -21.710938 18.148438 -22.613281 17.265625 -23.21875 C 16.378906 -23.832031 15.101562 -24.140625 13.4375 -24.140625 C 9.90625 -24.140625 8.140625 -23.03125 8.140625 -20.8125 C 8.140625 -20.09375 8.328125 -19.5 8.703125 -19.03125 C 9.078125 -18.570312 9.632812 -18.179688 10.375 -17.859375 C 11.113281 -17.535156 12.609375 -17.128906 14.859375 -16.640625 C 17.535156 -16.078125 19.453125 -15.550781 20.609375 -15.0625 C 21.765625 -14.582031 22.675781 -14.023438 23.34375 -13.390625 C 24.019531 -12.753906 24.535156 -11.988281 24.890625 -11.09375 C 25.242188 -10.207031 25.421875 -9.1875 25.421875 -8.03125 Z M 25.421875 -8.03125 "/></g></g></g><g clip-path="url(#446c547251)"><g fill="#000000" fill-opacity="1"><g transform="translate(25.309987, 35.703071)"><g><path d="M 5.59375 8.40625 C 4.257812 8.40625 3.09375 8.316406 2.09375 8.140625 L 2.09375 4.1875 C 2.789062 4.289062 3.429688 4.34375 4.015625 4.34375 C 4.804688 4.34375 5.460938 4.21875 5.984375 3.96875 C 6.503906 3.71875 6.96875 3.300781 7.375 2.71875 C 7.789062 2.144531 8.257812 1.164062 8.78125 -0.21875 L 0.3125 -21.390625 L 6.1875 -21.390625 L 9.546875 -11.359375 C 10.078125 -9.929688 10.742188 -7.734375 11.546875 -4.765625 L 12.03125 -6.640625 L 13.328125 -11.28125 L 16.484375 -21.390625 L 22.296875 -21.390625 L 13.84375 1.125 C 12.707031 3.863281 11.53125 5.757812 10.3125 6.8125 C 9.09375 7.875 7.519531 8.40625 5.59375 8.40625 Z M 5.59375 8.40625 "/></g></g></g></g><g fill="#000000" fill-opacity="1"><g transform="translate(45.234827, 35.703071)"><g><path d="M 7.765625 0.390625 C 5.703125 0.390625 4.085938 -0.171875 2.921875 -1.296875 C 1.765625 -2.421875 1.1875 -4.003906 1.1875 -6.046875 C 1.1875 -8.265625 1.90625 -9.953125 3.34375 -11.109375 C 4.789062 -12.265625 6.882812 -12.859375 9.625 -12.890625 L 14.234375 -12.96875 L 14.234375 -14.0625 C 14.234375 -15.457031 13.988281 -16.492188 13.5 -17.171875 C 13.007812 -17.847656 12.210938 -18.1875 11.109375 -18.1875 C 10.078125 -18.1875 9.320312 -17.953125 8.84375 -17.484375 C 8.363281 -17.015625 8.066406 -16.238281 7.953125 -15.15625 L 2.15625 -15.4375 C 2.507812 -17.519531 3.457031 -19.097656 5 -20.171875 C 6.550781 -21.242188 8.664062 -21.78125 11.34375 -21.78125 C 14.050781 -21.78125 16.132812 -21.113281 17.59375 -19.78125 C 19.050781 -18.457031 19.78125 -16.566406 19.78125 -14.109375 L 19.78125 -6.328125 C 19.78125 -5.128906 19.914062 -4.300781 20.1875 -3.84375 C 20.457031 -3.382812 20.910156 -3.15625 21.546875 -3.15625 C 21.960938 -3.15625 22.367188 -3.195312 22.765625 -3.28125 L 22.765625 -0.28125 C 22.441406 -0.195312 22.144531 -0.117188 21.875 -0.046875 C 21.613281 0.015625 21.351562 0.0625 21.09375 0.09375 C 20.832031 0.132812 20.550781 0.164062 20.25 0.1875 C 19.957031 0.21875 19.613281 0.234375 19.21875 0.234375 C 17.820312 0.234375 16.789062 -0.101562 16.125 -0.78125 C 15.457031 -1.46875 15.054688 -2.476562 14.921875 -3.8125 L 14.8125 -3.8125 C 13.25 -1.007812 10.898438 0.390625 7.765625 0.390625 Z M 14.234375 -9.90625 L 11.390625 -9.859375 C 10.097656 -9.804688 9.179688 -9.664062 8.640625 -9.4375 C 8.097656 -9.207031 7.6875 -8.851562 7.40625 -8.375 C 7.125 -7.90625 6.984375 -7.273438 6.984375 -6.484375 C 6.984375 -5.472656 7.210938 -4.71875 7.671875 -4.21875 C 8.140625 -3.726562 8.765625 -3.484375 9.546875 -3.484375 C 10.421875 -3.484375 11.210938 -3.71875 11.921875 -4.1875 C 12.640625 -4.664062 13.203125 -5.320312 13.609375 -6.15625 C 14.023438 -6.988281 14.234375 -7.875 14.234375 -8.8125 Z M 14.234375 -9.90625 "/></g></g></g><g fill="#000000" fill-opacity="1"><g transform="translate(65.159667, 35.703071)"><g><path d="M 8.296875 -17.125 C 9.046875 -18.75 9.988281 -19.929688 11.125 -20.671875 C 12.257812 -21.410156 13.613281 -21.78125 15.1875 -21.78125 C 17.445312 -21.78125 19.179688 -21.082031 20.390625 -19.6875 C 21.609375 -18.289062 22.21875 -16.25 22.21875 -13.5625 L 22.21875 0 L 16.6875 0 L 16.6875 -11.984375 C 16.6875 -15.734375 15.414062 -17.609375 12.875 -17.609375 C 11.53125 -17.609375 10.441406 -17.03125 9.609375 -15.875 C 8.785156 -14.726562 8.375 -13.253906 8.375 -11.453125 L 8.375 0 L 2.828125 0 L 2.828125 -29.328125 L 8.375 -29.328125 L 8.375 -21.328125 C 8.375 -19.890625 8.320312 -18.488281 8.21875 -17.125 Z M 8.296875 -17.125 "/></g></g></g><g fill="#000000" fill-opacity="1"><g transform="translate(87.298536, 35.703071)"><g><path d="M 2.828125 0 L 2.828125 -16.375 C 2.828125 -17.539062 2.8125 -18.515625 2.78125 -19.296875 C 2.75 -20.085938 2.710938 -20.785156 2.671875 -21.390625 L 7.96875 -21.390625 C 8.007812 -21.148438 8.0625 -20.425781 8.125 -19.21875 C 8.1875 -18.019531 8.21875 -17.222656 8.21875 -16.828125 L 8.296875 -16.828125 C 8.835938 -18.328125 9.316406 -19.382812 9.734375 -20 C 10.160156 -20.613281 10.664062 -21.066406 11.25 -21.359375 C 11.832031 -21.648438 12.554688 -21.796875 13.421875 -21.796875 C 14.128906 -21.796875 14.703125 -21.695312 15.140625 -21.5 L 15.140625 -16.859375 C 14.242188 -17.054688 13.453125 -17.15625 12.765625 -17.15625 C 11.378906 -17.15625 10.300781 -16.59375 9.53125 -15.46875 C 8.757812 -14.351562 8.375 -12.695312 8.375 -10.5 L 8.375 0 Z M 2.828125 0 "/></g></g></g><g fill="#000000" fill-opacity="1"><g transform="translate(100.462681, 35.703071)"><g><path d="M 8.0625 -21.390625 L 8.0625 -9.390625 C 8.0625 -5.628906 9.328125 -3.75 11.859375 -3.75 C 13.203125 -3.75 14.285156 -4.328125 15.109375 -5.484375 C 15.929688 -6.640625 16.34375 -8.117188 16.34375 -9.921875 L 16.34375 -21.390625 L 21.90625 -21.390625 L 21.90625 -4.78125 C 21.90625 -2.96875 21.957031 -1.375 22.0625 0 L 16.765625 0 C 16.609375 -1.894531 16.53125 -3.3125 16.53125 -4.25 L 16.421875 -4.25 C 15.679688 -2.625 14.742188 -1.441406 13.609375 -0.703125 C 12.472656 0.0234375 11.117188 0.390625 9.546875 0.390625 C 7.273438 0.390625 5.535156 -0.300781 4.328125 -1.6875 C 3.117188 -3.082031 2.515625 -5.125 2.515625 -7.8125 L 2.515625 -21.390625 Z M 8.0625 -21.390625 "/></g></g></g><g fill="#000000" fill-opacity="1"><g transform="translate(122.60155, 35.703071)"><g><path d="M 2.828125 0 L 2.828125 -29.328125 L 8.375 -29.328125 L 8.375 0 Z M 2.828125 0 "/></g></g></g><g fill="#000000" fill-opacity="1"><g transform="translate(131.258564, 35.703071)"><g><path d="M 21.84375 0 L 15.375 -10.578125 L 8.546875 -10.578125 L 8.546875 0 L 2.703125 0 L 2.703125 -27.859375 L 16.625 -27.859375 C 19.945312 -27.859375 22.507812 -27.140625 24.3125 -25.703125 C 26.113281 -24.273438 27.015625 -22.222656 27.015625 -19.546875 C 27.015625 -17.597656 26.460938 -15.914062 25.359375 -14.5 C 24.253906 -13.082031 22.757812 -12.148438 20.875 -11.703125 L 28.40625 0 Z M 21.15625 -19.3125 C 21.15625 -21.988281 19.441406 -23.328125 16.015625 -23.328125 L 8.546875 -23.328125 L 8.546875 -15.109375 L 16.171875 -15.109375 C 17.804688 -15.109375 19.046875 -15.472656 19.890625 -16.203125 C 20.734375 -16.941406 21.15625 -17.976562 21.15625 -19.3125 Z M 21.15625 -19.3125 "/></g></g></g><g fill="#000000" fill-opacity="1"><g transform="translate(157.904563, 35.703071)"><g><path d="M 7.765625 0.390625 C 5.703125 0.390625 4.085938 -0.171875 2.921875 -1.296875 C 1.765625 -2.421875 1.1875 -4.003906 1.1875 -6.046875 C 1.1875 -8.265625 1.90625 -9.953125 3.34375 -11.109375 C 4.789062 -12.265625 6.882812 -12.859375 9.625 -12.890625 L 14.234375 -12.96875 L 14.234375 -14.0625 C 14.234375 -15.457031 13.988281 -16.492188 13.5 -17.171875 C 13.007812 -17.847656 12.210938 -18.1875 11.109375 -18.1875 C 10.078125 -18.1875 9.320312 -17.953125 8.84375 -17.484375 C 8.363281 -17.015625 8.066406 -16.238281 7.953125 -15.15625 L 2.15625 -15.4375 C 2.507812 -17.519531 3.457031 -19.097656 5 -20.171875 C 6.550781 -21.242188 8.664062 -21.78125 11.34375 -21.78125 C 14.050781 -21.78125 16.132812 -21.113281 17.59375 -19.78125 C 19.050781 -18.457031 19.78125 -16.566406 19.78125 -14.109375 L 19.78125 -6.328125 C 19.78125 -5.128906 19.914062 -4.300781 20.1875 -3.84375 C 20.457031 -3.382812 20.910156 -3.15625 21.546875 -3.15625 C 21.960938 -3.15625 22.367188 -3.195312 22.765625 -3.28125 L 22.765625 -0.28125 C 22.441406 -0.195312 22.144531 -0.117188 21.875 -0.046875 C 21.613281 0.015625 21.351562 0.0625 21.09375 0.09375 C 20.832031 0.132812 20.550781 0.164062 20.25 0.1875 C 19.957031 0.21875 19.613281 0.234375 19.21875 0.234375 C 17.820312 0.234375 16.789062 -0.101562 16.125 -0.78125 C 15.457031 -1.46875 15.054688 -2.476562 14.921875 -3.8125 L 14.8125 -3.8125 C 13.25 -1.007812 10.898438 0.390625 7.765625 0.390625 Z M 14.234375 -9.90625 L 11.390625 -9.859375 C 10.097656 -9.804688 9.179688 -9.664062 8.640625 -9.4375 C 8.097656 -9.207031 7.6875 -8.851562 7.40625 -8.375 C 7.125 -7.90625 6.984375 -7.273438 6.984375 -6.484375 C 6.984375 -5.472656 7.210938 -4.71875 7.671875 -4.21875 C 8.140625 -3.726562 8.765625 -3.484375 9.546875 -3.484375 C 10.421875 -3.484375 11.210938 -3.71875 11.921875 -4.1875 C 12.640625 -4.664062 13.203125 -5.320312 13.609375 -6.15625 C 14.023438 -6.988281 14.234375 -7.875 14.234375 -8.8125 Z M 14.234375 -9.90625 "/></g></g></g><g fill="#000000" fill-opacity="1"><g transform="translate(177.829404, 35.703071)"><g><path d="M 15.421875 0 L 15.421875 -12 C 15.421875 -15.757812 14.335938 -17.640625 12.171875 -17.640625 C 11.054688 -17.640625 10.144531 -17.0625 9.4375 -15.90625 C 8.726562 -14.757812 8.375 -13.28125 8.375 -11.46875 L 8.375 0 L 2.828125 0 L 2.828125 -16.609375 C 2.828125 -17.753906 2.8125 -18.691406 2.78125 -19.421875 C 2.75 -20.148438 2.710938 -20.804688 2.671875 -21.390625 L 7.96875 -21.390625 C 8.007812 -21.140625 8.0625 -20.46875 8.125 -19.375 C 8.1875 -18.289062 8.21875 -17.546875 8.21875 -17.140625 L 8.296875 -17.140625 C 8.984375 -18.773438 9.835938 -19.957031 10.859375 -20.6875 C 11.878906 -21.425781 13.101562 -21.796875 14.53125 -21.796875 C 17.800781 -21.796875 19.785156 -20.242188 20.484375 -17.140625 L 20.59375 -17.140625 C 21.320312 -18.796875 22.191406 -19.984375 23.203125 -20.703125 C 24.222656 -21.429688 25.515625 -21.796875 27.078125 -21.796875 C 29.160156 -21.796875 30.75 -21.085938 31.84375 -19.671875 C 32.9375 -18.253906 33.484375 -16.222656 33.484375 -13.578125 L 33.484375 0 L 27.96875 0 L 27.96875 -12 C 27.96875 -15.757812 26.890625 -17.640625 24.734375 -17.640625 C 23.648438 -17.640625 22.757812 -17.113281 22.0625 -16.0625 C 21.375 -15.007812 21 -13.5625 20.9375 -11.71875 L 20.9375 0 Z M 15.421875 0 "/></g></g></g><g fill="#000000" fill-opacity="1"><g transform="translate(211.236099, 35.703071)"><g><path d="M 7.765625 0.390625 C 5.703125 0.390625 4.085938 -0.171875 2.921875 -1.296875 C 1.765625 -2.421875 1.1875 -4.003906 1.1875 -6.046875 C 1.1875 -8.265625 1.90625 -9.953125 3.34375 -11.109375 C 4.789062 -12.265625 6.882812 -12.859375 9.625 -12.890625 L 14.234375 -12.96875 L 14.234375 -14.0625 C 14.234375 -15.457031 13.988281 -16.492188 13.5 -17.171875 C 13.007812 -17.847656 12.210938 -18.1875 11.109375 -18.1875 C 10.078125 -18.1875 9.320312 -17.953125 8.84375 -17.484375 C 8.363281 -17.015625 8.066406 -16.238281 7.953125 -15.15625 L 2.15625 -15.4375 C 2.507812 -17.519531 3.457031 -19.097656 5 -20.171875 C 6.550781 -21.242188 8.664062 -21.78125 11.34375 -21.78125 C 14.050781 -21.78125 16.132812 -21.113281 17.59375 -19.78125 C 19.050781 -18.457031 19.78125 -16.566406 19.78125 -14.109375 L 19.78125 -6.328125 C 19.78125 -5.128906 19.914062 -4.300781 20.1875 -3.84375 C 20.457031 -3.382812 20.910156 -3.15625 21.546875 -3.15625 C 21.960938 -3.15625 22.367188 -3.195312 22.765625 -3.28125 L 22.765625 -0.28125 C 22.441406 -0.195312 22.144531 -0.117188 21.875 -0.046875 C 21.613281 0.015625 21.351562 0.0625 21.09375 0.09375 C 20.832031 0.132812 20.550781 0.164062 20.25 0.1875 C 19.957031 0.21875 19.613281 0.234375 19.21875 0.234375 C 17.820312 0.234375 16.789062 -0.101562 16.125 -0.78125 C 15.457031 -1.46875 15.054688 -2.476562 14.921875 -3.8125 L 14.8125 -3.8125 C 13.25 -1.007812 10.898438 0.390625 7.765625 0.390625 Z M 14.234375 -9.90625 L 11.390625 -9.859375 C 10.097656 -9.804688 9.179688 -9.664062 8.640625 -9.4375 C 8.097656 -9.207031 7.6875 -8.851562 7.40625 -8.375 C 7.125 -7.90625 6.984375 -7.273438 6.984375 -6.484375 C 6.984375 -5.472656 7.210938 -4.71875 7.671875 -4.21875 C 8.140625 -3.726562 8.765625 -3.484375 9.546875 -3.484375 C 10.421875 -3.484375 11.210938 -3.71875 11.921875 -4.1875 C 12.640625 -4.664062 13.203125 -5.320312 13.609375 -6.15625 C 14.023438 -6.988281 14.234375 -7.875 14.234375 -8.8125 Z M 14.234375 -9.90625 "/></g></g></g><g fill="#000000" fill-opacity="1"><g transform="translate(231.16094, 35.703071)"><g><path d="M 16.6875 0 C 16.632812 -0.195312 16.570312 -0.691406 16.5 -1.484375 C 16.425781 -2.285156 16.390625 -2.953125 16.390625 -3.484375 L 16.3125 -3.484375 C 15.113281 -0.898438 12.832031 0.390625 9.46875 0.390625 C 6.976562 0.390625 5.050781 -0.578125 3.6875 -2.515625 C 2.332031 -4.460938 1.65625 -7.179688 1.65625 -10.671875 C 1.65625 -14.210938 2.367188 -16.945312 3.796875 -18.875 C 5.234375 -20.8125 7.265625 -21.78125 9.890625 -21.78125 C 11.398438 -21.78125 12.703125 -21.460938 13.796875 -20.828125 C 14.898438 -20.203125 15.75 -19.265625 16.34375 -18.015625 L 16.390625 -18.015625 L 16.34375 -21.53125 L 16.34375 -29.328125 L 21.90625 -29.328125 L 21.90625 -4.671875 C 21.90625 -3.347656 21.957031 -1.789062 22.0625 0 Z M 16.421875 -10.8125 C 16.421875 -13.113281 16.035156 -14.890625 15.265625 -16.140625 C 14.492188 -17.390625 13.359375 -18.015625 11.859375 -18.015625 C 10.367188 -18.015625 9.257812 -17.410156 8.53125 -16.203125 C 7.8125 -14.992188 7.453125 -13.148438 7.453125 -10.671875 C 7.453125 -5.828125 8.910156 -3.40625 11.828125 -3.40625 C 13.285156 -3.40625 14.414062 -4.046875 15.21875 -5.328125 C 16.019531 -6.609375 16.421875 -8.4375 16.421875 -10.8125 Z M 16.421875 -10.8125 "/></g></g></g><g fill="#000000" fill-opacity="1"><g transform="translate(253.299809, 35.703071)"><g><path d="M 8.296875 -17.125 C 9.046875 -18.75 9.988281 -19.929688 11.125 -20.671875 C 12.257812 -21.410156 13.613281 -21.78125 15.1875 -21.78125 C 17.445312 -21.78125 19.179688 -21.082031 20.390625 -19.6875 C 21.609375 -18.289062 22.21875 -16.25 22.21875 -13.5625 L 22.21875 0 L 16.6875 0 L 16.6875 -11.984375 C 16.6875 -15.734375 15.414062 -17.609375 12.875 -17.609375 C 11.53125 -17.609375 10.441406 -17.03125 9.609375 -15.875 C 8.785156 -14.726562 8.375 -13.253906 8.375 -11.453125 L 8.375 0 L 2.828125 0 L 2.828125 -29.328125 L 8.375 -29.328125 L 8.375 -21.328125 C 8.375 -19.890625 8.320312 -18.488281 8.21875 -17.125 Z M 8.296875 -17.125 "/></g></g></g><g fill="#000000" fill-opacity="1"><g transform="translate(275.438678, 35.703071)"><g><path d="M 7.765625 0.390625 C 5.703125 0.390625 4.085938 -0.171875 2.921875 -1.296875 C 1.765625 -2.421875 1.1875 -4.003906 1.1875 -6.046875 C 1.1875 -8.265625 1.90625 -9.953125 3.34375 -11.109375 C 4.789062 -12.265625 6.882812 -12.859375 9.625 -12.890625 L 14.234375 -12.96875 L 14.234375 -14.0625 C 14.234375 -15.457031 13.988281 -16.492188 13.5 -17.171875 C 13.007812 -17.847656 12.210938 -18.1875 11.109375 -18.1875 C 10.078125 -18.1875 9.320312 -17.953125 8.84375 -17.484375 C 8.363281 -17.015625 8.066406 -16.238281 7.953125 -15.15625 L 2.15625 -15.4375 C 2.507812 -17.519531 3.457031 -19.097656 5 -20.171875 C 6.550781 -21.242188 8.664062 -21.78125 11.34375 -21.78125 C 14.050781 -21.78125 16.132812 -21.113281 17.59375 -19.78125 C 19.050781 -18.457031 19.78125 -16.566406 19.78125 -14.109375 L 19.78125 -6.328125 C 19.78125 -5.128906 19.914062 -4.300781 20.1875 -3.84375 C 20.457031 -3.382812 20.910156 -3.15625 21.546875 -3.15625 C 21.960938 -3.15625 22.367188 -3.195312 22.765625 -3.28125 L 22.765625 -0.28125 C 22.441406 -0.195312 22.144531 -0.117188 21.875 -0.046875 C 21.613281 0.015625 21.351562 0.0625 21.09375 0.09375 C 20.832031 0.132812 20.550781 0.164062 20.25 0.1875 C 19.957031 0.21875 19.613281 0.234375 19.21875 0.234375 C 17.820312 0.234375 16.789062 -0.101562 16.125 -0.78125 C 15.457031 -1.46875 15.054688 -2.476562 14.921875 -3.8125 L 14.8125 -3.8125 C 13.25 -1.007812 10.898438 0.390625 7.765625 0.390625 Z M 14.234375 -9.90625 L 11.390625 -9.859375 C 10.097656 -9.804688 9.179688 -9.664062 8.640625 -9.4375 C 8.097656 -9.207031 7.6875 -8.851562 7.40625 -8.375 C 7.125 -7.90625 6.984375 -7.273438 6.984375 -6.484375 C 6.984375 -5.472656 7.210938 -4.71875 7.671875 -4.21875 C 8.140625 -3.726562 8.765625 -3.484375 9.546875 -3.484375 C 10.421875 -3.484375 11.210938 -3.71875 11.921875 -4.1875 C 12.640625 -4.664062 13.203125 -5.320312 13.609375 -6.15625 C 14.023438 -6.988281 14.234375 -7.875 14.234375 -8.8125 Z M 14.234375 -9.90625 "/></g></g></g><g fill="#000000" fill-opacity="1"><g transform="translate(295.363518, 35.703071)"><g><path d="M 16.6875 0 L 16.6875 -12 C 16.6875 -15.757812 15.414062 -17.640625 12.875 -17.640625 C 11.53125 -17.640625 10.441406 -17.0625 9.609375 -15.90625 C 8.785156 -14.75 8.375 -13.269531 8.375 -11.46875 L 8.375 0 L 2.828125 0 L 2.828125 -16.609375 C 2.828125 -17.753906 2.8125 -18.691406 2.78125 -19.421875 C 2.75 -20.148438 2.710938 -20.804688 2.671875 -21.390625 L 7.96875 -21.390625 C 8.007812 -21.140625 8.0625 -20.46875 8.125 -19.375 C 8.1875 -18.289062 8.21875 -17.546875 8.21875 -17.140625 L 8.296875 -17.140625 C 9.046875 -18.773438 9.988281 -19.957031 11.125 -20.6875 C 12.257812 -21.425781 13.613281 -21.796875 15.1875 -21.796875 C 17.445312 -21.796875 19.179688 -21.097656 20.390625 -19.703125 C 21.609375 -18.304688 22.21875 -16.265625 22.21875 -13.578125 L 22.21875 0 Z M 16.6875 0 "/></g></g></g></g></g></svg>