<svg width="556" height="36" viewBox="0 0 556 36" fill="none" xmlns="http://www.w3.org/2000/svg">
<path d="M131.904 1C134.213 1 136.523 1 203.534 2.15476C270.545 3.30952 402.187 5.61903 470.725 6.66444C539.262 7.70984 540.706 7.42115 541.882 7.12809C543.943 6.61477 548.282 6.2489 552.953 6.53759C554.192 6.61415 553.006 7.40366 550.823 7.98978C548.64 8.57591 545.465 9.15329 466.604 12.915C387.744 16.6767 233.295 23.6053 152.143 26.8858C70.9904 30.1664 67.8148 29.589 65.1685 29.2916C56.1621 28.2793 49.1112 30.7438 43.4293 32.196C33.653 34.6946 22.9192 33.3682 11.6603 34.0943C8.31341 34.3102 3.69073 34.243 1.8886 33.9543C0.0864806 33.6657 1.24124 33.0883 3.42391 32.5021C5.60657 31.916 8.78216 31.3386 99.7675 31.4742C190.753 31.6098 369.452 32.4759 461.942 33.0664C554.432 33.6569 555.298 33.9456 554.445 33.3726C547.629 28.7937 540.198 26.6846 532.014 23.754C525.665 21.4804 515.143 17.6565 508.092 15.7275C506.92 15.5832 505.765 15.2945 502.572 15.1458C499.379 14.9971 494.183 14.9971 488.829 14.9971" stroke="#F0F3FC" stroke-width="2" stroke-linecap="round"/>
</svg>
