<svg width="583" height="42" viewBox="0 0 583 42" fill="none" xmlns="http://www.w3.org/2000/svg">
<path d="M580.647 35.1261C578.995 34.8911 575.206 34.4139 569.038 32.0494C564.937 30.477 560.962 29.6706 557.276 28.4848C553.789 27.3627 551.461 25.3973 548.491 23.8554C546.718 23.2607 545.044 22.5485 543.623 21.7188C542.908 21.3591 542.202 21.1241 541.476 20.882" stroke="#F0F3FC" stroke-width="3" stroke-linecap="round"/>
<path d="M1.62347 32.2773C3.97376 32.5123 6.32404 32.7473 46.0794 34.5136C85.8348 36.2799 162.924 39.5703 210.393 40.3252C257.861 41.0802 273.373 39.1999 293.35 37.6438C313.328 36.0876 337.301 34.9124 354.233 34.4246C371.166 33.9367 380.332 34.1718 388.344 34.7629C396.357 35.354 402.938 36.2941 410.441 36.7784C417.944 37.2627 426.17 37.2627 430.76 37.1452C435.35 37.0277 436.055 36.7927 451.46 36.7891C466.865 36.7856 496.949 37.0206 513.857 36.9066C530.764 36.7927 533.585 36.3226 541.854 36.0805C550.122 35.8383 563.754 35.8383 571.129 35.9558C578.504 36.0733 579.209 36.3084 580.647 36.5505" stroke="#F0F3FC" stroke-width="3" stroke-linecap="round"/>
<path d="M575.382 22.3672C572.217 22.3672 569.052 22.3672 512.231 20.5869C455.409 18.8065 345.027 15.2458 261.854 16.7744C178.681 18.303 126.062 25.0288 90.4488 28.4936C54.8358 31.9584 37.8235 31.9584 28.0705 31.7605C16.3394 31.1671 8.76236 30.7595 1.55703 30.7595C-0.109433 30.7595 2.26437 30.7595 4.71011 30.7595" stroke="#F0F3FC" stroke-width="3" stroke-linecap="round"/>
<path d="M153.133 2C154.222 2 155.311 2 214.823 3.90602C274.334 5.81205 392.235 9.62409 455.559 11.9963C518.883 14.3685 524.056 15.1854 527.402 15.6062C534.578 16.5087 542.258 16.8521 549.305 17.537C555.229 18.2218 559.074 19.8721 568.543 20.2887C570.634 20.4249 571.451 20.6972 572.293 20.9777" stroke="#F0F3FC" stroke-width="3" stroke-linecap="round"/>
</svg>
