<svg width="607" height="82" viewBox="0 0 607 82" fill="none" xmlns="http://www.w3.org/2000/svg">
<path d="M154.04 1C155.18 1 156.319 1 224.121 7.40821C291.922 13.8164 426.352 26.6328 499.307 33.0928C572.261 39.5528 579.666 39.268 583.766 39.5485C587.865 39.829 588.435 40.6834 587.019 41.1236C585.604 41.5637 582.186 41.5637 570.172 39.2853C558.159 37.0068 537.652 32.4498 473.829 33.52C410.006 34.5902 303.487 41.4256 247.475 45.2317C191.463 49.0378 189.455 54.2119 187 54.5053C176.813 55.7227 159.5 54.5053 146 54.5053C140.552 54.5053 136 54.5053 126.5 54.5053C101.43 54.5053 97 54.5053 91.3434 54.5053C87.8651 54.5053 74.1622 56.5292 59 56.5292C40 56.5292 28 56.5292 20.5 56.5292C14.8633 56.5292 7 56.5292 3.5 56.5292C0.511514 56.5292 1.98563 54.0781 7 52.6368C12.0144 51.1955 18.9544 50.2288 72.9041 49.0637C126.854 47.8986 224.006 52.503 275.5 52.6368C326.994 52.7705 325.336 48.8911 330.385 48.8911C333.5 48.8911 341.548 50.1943 361.878 52.0499C377.26 53.4539 407.175 55.6143 426.426 57.7849C445.676 59.9555 453.366 61.9492 458.752 63.5458C467.07 66.012 479.603 69.4492 499.971 72.8971C521.857 76.6019 536.634 76.6557 541.804 77.5187C548.383 78.6172 552.463 79.2449 565.193 80.2546C589.773 82.2044 606.283 79.2621 605.713 77.1088C605.416 75.9844 604.004 75.2403 593.734 71.3824C583.464 67.5245 564.097 60.6891 547.711 55.8862C531.326 51.0833 518.51 48.52 510.056 47.1995C497.975 45.3124 487.819 45.0246 477.187 43.73C467.054 43.005 463.032 41.2876 459.446 38.9918C457.569 37.8353 455.576 36.6961 451.795 34.6593" stroke="#F0F3FC" stroke-width="2" stroke-linecap="round"/>
</svg>
