<?xml version="1.0" encoding="UTF-8"?>
<svg version="1.1" xmlns="http://www.w3.org/2000/svg" width="2660" height="2624">
<path d="M0 0 C0.96986847 0.00060425 1.93973694 0.0012085 2.93899536 0.00183105 C57.87622224 0.09430373 126.66838169 3.01758088 168.25 44.1875 C173.01664459 49.16420011 177.43114703 54.38324509 181.75 59.75 C204.54102906 87.7064699 239.50876314 94.02435198 273.80712891 97.70166016 C280.27401951 98.32385376 286.75476952 98.64923974 293.2421875 98.9765625 C293.90415257 99.00999126 294.56611763 99.04342003 295.24814224 99.07786179 C298.76862815 99.2550015 302.28927002 99.42859714 305.81005859 99.59960938 C308.65484682 99.73843633 311.49915345 99.88402069 314.34326172 100.03613281 C333.37937746 101.05107432 352.19716218 101.30963076 371.25 100.1875 C372.31164368 100.12516174 373.37328735 100.06282349 374.46710205 99.99859619 C381.69303588 99.55744212 388.90934068 99.02175444 396.125 98.4375 C397.19719788 98.35168671 398.26939575 98.26587341 399.37408447 98.17745972 C455.89378145 94.26088421 455.89378145 94.26088421 502.25 65.1875 C503.63854043 63.51112393 505.01301712 61.82302352 506.375 60.125 C515.99266297 48.2118321 525.87733064 36.92603492 539.25 29.1875 C539.9404541 28.78337891 540.6309082 28.37925781 541.34228516 27.96289062 C598.88681665 -5.20644473 673.2548833 -3.95237783 737.25 3.1875 C739.1064917 3.38835205 739.1064917 3.38835205 741.00048828 3.59326172 C799.8321883 10.18158159 857.53385595 26.86044591 911.7578125 50.25976562 C916.27160927 52.20401156 920.80633902 54.09606085 925.34375 55.984375 C986.35732845 81.4641391 1057.72481906 120.69025944 1084.25 185.1875 C1092.38972127 206.42039134 1093.21836463 229.57723069 1084.8125 250.8203125 C1072.46066532 277.83995087 1044.04400129 295.82071406 1017.1875 306.2265625 C983.20000867 318.53413908 946.11695394 322.41859636 910.1875 322.375 C909.26381622 322.37439575 908.34013245 322.3737915 907.38845825 322.37316895 C857.72958812 322.28545605 808.42821097 314.9940181 760.25 303.1875 C759.12835449 302.91325195 758.00670898 302.63900391 756.85107422 302.35644531 C721.46502917 293.57159593 687.88494482 279.91102677 654.94140625 264.44726562 C652.40400218 263.25958375 649.85965498 262.08846375 647.3125 260.921875 C637.95994495 256.60791237 628.89120397 251.89838122 619.87597656 246.91918945 C604.3241454 238.33582714 588.52917385 230.14815366 572.57763672 222.33056641 C570.84557186 221.47997613 569.11578454 220.62474496 567.38720703 219.76708984 C516.22077606 194.41677202 461.49279499 176.97294523 404.25 173.1875 C403.09338867 173.1035498 401.93677734 173.01959961 400.74511719 172.93310547 C388.4599869 172.08766596 376.1860578 171.94552723 363.875 171.9375 C362.7912912 171.93649292 361.7075824 171.93548584 360.59103394 171.93444824 C338.37915721 171.94824356 316.36022596 173.11811368 294.25 175.1875 C293.07784943 175.29641571 293.07784943 175.29641571 291.88201904 175.40753174 C217.0479372 182.437931 146.02520113 203.19489118 80.99755859 241.53125 C59.03822956 254.4345205 36.58520135 265.19350933 12.72705078 274.1328125 C-20.34331521 286.61987867 -35.76650271 316.52633854 -49.88623047 347.27514648 C-76.30134877 405.75723287 -88.31386601 465.54253982 -65.421875 527.6171875 C-55.12621714 554.61050863 -42.43047964 574.37133964 -15.75 587.1875 C-11.06328112 589.25864995 -6.27923825 591.07996147 -1.48635864 592.88845825 C2.14321535 594.26206721 5.75664613 595.67700996 9.37109375 597.08984375 C10.06966995 597.36251572 10.76824615 597.63518768 11.48799133 597.91612244 C30.71342569 605.44304711 47.6887145 615.49451474 63.25 629.1875 C64.22195313 630.02667969 65.19390625 630.86585938 66.1953125 631.73046875 C96.43099116 658.2655021 111.09892774 694.0717354 119.75097656 732.40722656 C122.51033281 744.28761971 128.68044138 751.20851831 138.8125 757.8125 C152.51221087 766.31826256 167.19980771 772.51062848 182.25 778.1875 C183.27609375 778.57695801 184.3021875 778.96641602 185.359375 779.36767578 C263.64448707 808.85335121 349.97844637 819.23194465 536.57373047 778.15966797 C541.2249802 775.99816301 545.75062268 773.64825785 550.25 771.1875 C551.19101563 770.67445313 552.13203125 770.16140625 553.1015625 769.6328125 C559.30559086 766.07942165 564.83299998 761.84244748 570.25 757.1875 C570.86617187 756.66800781 571.48234375 756.14851562 572.1171875 755.61328125 C583.25385578 745.42605243 589.5641852 730.33561687 595.109375 716.61328125 C601.44726567 700.97672178 608.89321724 686.81432815 620.25 674.1875 C620.71164551 673.66704102 621.17329102 673.14658203 621.64892578 672.61035156 C636.21449848 656.22348159 653.04547685 641.89241362 672.25 631.1875 C672.81912109 630.87006836 673.38824219 630.55263672 673.97460938 630.22558594 C749.30316419 588.86470551 848.01416096 596.90147178 930.1619873 620.30770874 C967.54077055 631.25432209 1003.43934368 645.74073058 1038.25 663.1875 C1039.71953125 663.92033203 1039.71953125 663.92033203 1041.21875 664.66796875 C1066.28925121 677.23843073 1089.45634729 692.5749825 1111.25 710.1875 C1111.90387695 710.71520996 1112.55775391 711.24291992 1113.23144531 711.78662109 C1117.31016541 715.08231211 1121.37639537 718.39297979 1125.43701172 721.7109375 C1127.04745355 723.02253893 1128.66575487 724.32447689 1130.28515625 725.625 C1136.61176764 730.72270127 1142.64433324 736.09274429 1148.58300781 741.63378906 C1150.38162515 743.3101805 1152.18667865 744.97947199 1153.9921875 746.6484375 C1163.21069719 755.18706467 1172.38834308 763.70953468 1180.5546875 773.28125 C1182.28734362 775.22949006 1184.11530361 777.01173746 1186 778.8125 C1190.06622616 782.8160483 1193.49776009 787.19630266 1196.97387695 791.70605469 C1200.10420215 795.75965146 1203.3414502 799.68587607 1206.6875 803.5625 C1247.56441622 851.29368796 1277.4879388 910.49941163 1285.25 973.1875 C1285.3435376 973.92895264 1285.4370752 974.67040527 1285.53344727 975.43432617 C1288.86021123 1004.6984704 1285.57067518 1034.30785417 1276.25 1062.1875 C1275.89035156 1063.2707959 1275.89035156 1063.2707959 1275.5234375 1064.37597656 C1268.8375158 1084.13067104 1258.79406379 1102.30082478 1245.25 1118.1875 C1244.59128906 1118.96867187 1243.93257812 1119.74984375 1243.25390625 1120.5546875 C1239.56515078 1124.82587805 1235.75228035 1128.6910843 1231.40234375 1132.2890625 C1229.50140082 1133.96575626 1227.75397662 1135.69970458 1225.984375 1137.51171875 C1185.55051088 1178.19772452 1122.16634643 1194.00731036 1066.49609375 1194.42578125 C1065.40914215 1194.4355751 1064.32219055 1194.44536896 1063.20230103 1194.45545959 C1038.27020031 1194.63366801 1013.87785654 1194.25626301 989.25 1190.1875 C988.59032227 1190.07859436 987.93064453 1189.96968872 987.25097656 1189.85748291 C912.99383595 1177.47904095 835.05044893 1150.2430634 775.18261719 1103.67578125 C773.19396194 1102.14434588 771.18380928 1100.64639983 769.1640625 1099.15625 C761.64191096 1093.60393064 754.35649008 1087.87995506 747.2734375 1081.77734375 C744.40715051 1079.32211342 741.49774716 1076.93454147 738.5625 1074.5625 C734.16054677 1070.98232965 729.94885411 1067.23723839 725.7578125 1063.4140625 C723.27409464 1061.20889243 720.72205295 1059.13238996 718.125 1057.0625 C713.35315561 1053.20598824 708.88862552 1049.09593146 704.4375 1044.875 C694.44276226 1035.41114422 684.0981494 1026.53388425 673.20947266 1018.11572266 C669.82477149 1015.48296632 666.62745439 1012.75252134 663.5 1009.8125 C601.70723871 953.1775633 511.62736792 925.74110741 430 915.9375 C428.74880371 915.78627686 427.49760742 915.63505371 426.20849609 915.47924805 C401.93117792 912.75216886 377.65578458 911.80721757 353.24568939 911.86964417 C351.02180308 911.87509984 348.79792747 911.87745675 346.57403564 911.8795166 C323.12583484 911.91329483 299.82450275 912.57693642 276.48297119 914.95965576 C274.25138946 915.18735822 272.01911647 915.40694498 269.78662109 915.62548828 C185.74428424 923.96805848 95.94603776 945.29205454 -17.09375 1029.7421875 C-20.58887454 1032.95975804 -24.15321336 1036.08463829 -27.75 1039.1875 C-28.7296875 1040.04601563 -29.709375 1040.90453125 -30.71875 1041.7890625 C-47.13229208 1056.10921321 -64.43831127 1068.54529555 -82.77539062 1080.27636719 C-85.3475115 1081.92890841 -87.90475867 1083.60023749 -90.453125 1085.2890625 C-153.60718888 1127.06586904 -229.37728041 1155.81740343 -304.75 1164.1875 C-306.33264648 1164.36539062 -306.33264648 1164.36539062 -307.94726562 1164.546875 C-341.03376085 1168.04941514 -376.90317237 1168.90459939 -409.75 1163.1875 C-410.74918457 1163.01589355 -411.74836914 1162.84428711 -412.77783203 1162.66748047 C-460.45053022 1154.18239231 -506.21721177 1134.98601716 -539.75 1099.1875 C-540.678125 1098.21296875 -540.678125 1098.21296875 -541.625 1097.21875 C-566.74979881 1069.76758093 -583.78549462 1029.74988774 -583.953125 992.4453125 C-583.96013931 991.41250153 -583.96715363 990.37969055 -583.97438049 989.31558228 C-583.99187667 985.98117723 -583.99823685 982.64694932 -584 979.3125 C-584.00067474 978.17913208 -584.00134949 977.04576416 -584.00204468 975.87805176 C-583.98678173 959.80089491 -583.81756549 944.02373268 -580.75 928.1875 C-580.57307617 927.25776367 -580.39615234 926.32802734 -580.21386719 925.37011719 C-577.65758728 912.3591381 -574.08894791 899.70929599 -569.75 887.1875 C-569.44642578 886.29933594 -569.14285156 885.41117188 -568.83007812 884.49609375 C-555.62575232 846.29122352 -535.49489072 811.07270745 -510.75 779.1875 C-509.68317377 777.79068525 -508.6168052 776.39352089 -507.55078125 774.99609375 C-492.35362654 755.16208714 -475.93892214 736.27823885 -457.30419922 719.58886719 C-455.74219218 718.18045996 -454.19887147 716.75410423 -452.66015625 715.3203125 C-446.23444389 709.33849853 -439.63128974 703.64178481 -432.75 698.1875 C-431.79528809 697.42397217 -431.79528809 697.42397217 -430.82128906 696.64501953 C-420.83269433 688.67044215 -410.60686088 681.20972658 -400.00390625 674.07421875 C-396.68684886 671.8394859 -393.45086983 669.52441556 -390.25 667.125 C-371.99800693 653.73084509 -351.89146003 642.61875143 -331.625 632.625 C-316.20823635 625.01888433 -301.06602495 617.17223275 -287.75 606.1875 C-286.88117188 605.47078125 -286.01234375 604.7540625 -285.1171875 604.015625 C-279.42713449 599.10860681 -274.62485393 593.77907561 -270.03515625 587.83935547 C-268.61512621 586.01414209 -267.16712374 584.21294813 -265.71875 582.41015625 C-238.63720323 548.31744351 -219.47307983 505.72628077 -208.8125 463.6875 C-208.54228027 462.62853516 -208.27206055 461.56957031 -207.99365234 460.47851562 C-204.09534888 444.31253013 -202.2561512 428.39129595 -202.41381836 411.77807617 C-202.43752745 409.12192444 -202.43432673 406.46677897 -202.42773438 403.81054688 C-202.4677282 379.00823219 -204.14824936 351.44199718 -221.75 332.1875 C-231.5905221 323.53860363 -244.9155395 321.71028745 -257.46148682 319.978302 C-259.62424614 319.67895369 -261.78459487 319.36564981 -263.94482422 319.04858398 C-266.85776132 318.62131537 -269.77111957 318.19723727 -272.68505859 317.77685547 C-302.03054823 313.53211574 -329.48605685 307.23972431 -355.75 293.1875 C-356.83410156 292.61 -357.91820312 292.0325 -359.03515625 291.4375 C-379.11397701 280.24517669 -393.90918774 263.56431174 -400.83984375 241.59765625 C-407.37919181 217.09615043 -400.14100828 192.49857742 -388.078125 171.01953125 C-381.39204782 159.67603341 -372.72176144 149.75424737 -363.75 140.1875 C-362.53516182 138.79732435 -361.32626166 137.40192388 -360.125 136 C-353.31934631 128.21306602 -345.85228621 121.60226064 -337.75 115.1875 C-336.87730469 114.47464844 -336.00460937 113.76179688 -335.10546875 113.02734375 C-271.13713118 62.01018807 -192.90936885 32.89100078 -32.75 1.1875 C-31.83283203 1.0851001 -30.91566406 0.9827002 -29.97070312 0.87719727 C-20.00580478 -0.11245529 -10.00335471 -0.01148821 0 0 Z " fill="#15477A" transform="translate(965.75,197.8125)"/>
<path d="M0 0 C0.73516846 0.00054382 1.47033691 0.00108765 2.2277832 0.00164795 C16.68265353 0.05030837 30.61964814 1.56976346 44.8125 4.375 C45.86775879 4.57867187 46.92301758 4.78234375 48.01025391 4.9921875 C61.03704954 7.57088418 73.70974074 11.09610871 86.3125 15.25 C88.08137573 15.82935303 88.08137573 15.82935303 89.88598633 16.42041016 C107.0547795 22.25725211 123.26499701 30.39177287 139.46972656 38.46337891 C142.5393411 39.98849367 145.61710684 41.4962237 148.6953125 43.00390625 C168.59692108 52.84907863 186.92810639 64.64605741 204.75146484 77.85205078 C206.7493294 79.3283217 208.75713769 80.78971 210.76953125 82.24609375 C226.71150527 93.80163657 241.97838325 106.09149764 256.5546875 119.33203125 C258.60027589 121.18297023 260.66716525 123.00372245 262.75 124.8125 C266.94482152 128.46496076 271.04558393 132.21787171 275.15234375 135.96875 C277.36709708 137.97210984 279.60720316 139.93248311 281.875 141.875 C288.81991019 147.92333367 295.19650672 154.52671067 301.17578125 161.5234375 C302.77650496 163.33428007 304.44942304 165.00908243 306.1875 166.6875 C309.87714842 170.31988115 313.07267297 174.2830405 316.3125 178.31640625 C318.03479906 180.42353151 319.76678686 182.48590803 321.5625 184.52734375 C329.93092254 194.04326629 337.45358839 204.06335615 344.8125 214.375 C345.78823975 215.73987549 345.78823975 215.73987549 346.78369141 217.13232422 C361.69299532 238.06887033 374.90304671 259.60027869 386.8125 282.375 C387.34343262 283.38095215 387.87436523 284.3869043 388.42138672 285.42333984 C407.11350433 321.00599365 420.76135494 358.79696722 431.8125 397.375 C432.08610352 398.32197754 432.35970703 399.26895508 432.64160156 400.24462891 C445.74343883 445.98022553 443.80893418 497.22636463 422.8125 540.375 C422.35359375 541.344375 421.8946875 542.31375 421.421875 543.3125 C409.1013324 567.67035434 386.16652386 582.71837886 360.71875 591.203125 C317.85416414 604.4624543 272.74746652 597.82430628 230.8125 584.375 C229.96026855 584.10461914 229.10803711 583.83423828 228.22998047 583.55566406 C189.8497505 571.22751471 153.58241997 551.67556881 120.8125 528.375 C120.1520166 527.90884277 119.4915332 527.44268555 118.81103516 526.96240234 C105.53648186 517.5636804 92.90519393 507.28540347 80.9140625 496.296875 C79.01213858 494.55756911 77.07930268 492.86736869 75.125 491.1875 C58.8043629 476.87536236 43.67155445 461.32024364 28.375 445.9375 C24.12099726 441.65970451 19.86524635 437.3836757 15.60526848 433.11182976 C13.92383497 431.42400573 12.24548215 429.73316158 10.567276 428.04212952 C5.66331334 423.1147976 0.73700006 418.26647016 -4.56607056 413.76271057 C-6.16417703 412.39496111 -7.69510503 410.97734025 -9.21484375 409.5234375 C-21.77609499 397.51679997 -35.72253792 387.53099692 -50.1015625 377.828125 C-54.68738208 374.73013312 -59.21859913 371.55852971 -63.74633789 368.37646484 C-74.69355837 360.69423674 -85.78817524 353.36607145 -97.1875 346.375 C-98.79963379 345.38234131 -98.79963379 345.38234131 -100.44433594 344.36962891 C-118.9401146 332.98826159 -137.51322863 321.90126202 -157.06640625 312.41113281 C-159.26070978 311.33923776 -161.44260335 310.24434739 -163.625 309.1484375 C-213.53904544 284.40389123 -267.98767348 267.90657379 -323.50390625 262.765625 C-324.2052343 262.70063183 -324.90656235 262.63563866 -325.62914276 262.56867599 C-341.34294871 261.14744702 -356.99787854 260.89798506 -372.76680756 260.98847961 C-374.98323381 261.00024272 -377.19962626 261.00672525 -379.41607666 261.01208496 C-401.78978725 261.07524325 -423.95298461 261.7225215 -446.1875 264.375 C-448.07734619 264.58382812 -448.07734619 264.58382812 -450.00537109 264.796875 C-515.61580996 272.10478001 -577.82816084 292.94848408 -637.1875 321.375 C-638.06003418 321.79201172 -638.93256836 322.20902344 -639.83154297 322.63867188 C-649.62208446 327.34930208 -659.13197432 332.39513109 -668.48608398 337.92016602 C-675.57285304 342.08329092 -682.80420742 345.95968089 -690.0625 349.8125 C-698.6011455 354.3452338 -707.07166959 358.96519136 -715.4375 363.8125 C-723.86715484 368.68071159 -732.37944376 373.22952327 -741.1875 377.375 C-741.87312012 377.69919922 -742.55874023 378.02339844 -743.26513672 378.35742188 C-786.30372759 398.53452685 -834.60556154 409.57553522 -882.1875 410.375 C-883.2384082 410.39546387 -884.28931641 410.41592773 -885.37207031 410.43701172 C-974.86921786 411.92986461 -1075.70138435 390.44005262 -1142.1875 326.375 C-1143.08726563 325.55 -1143.98703125 324.725 -1144.9140625 323.875 C-1169.15722228 300.95927549 -1186.53162885 266.41612968 -1187.5234375 232.90625 C-1187.55357877 230.22765179 -1187.57035015 227.55332967 -1187.5625 224.875 C-1187.56195618 224.17356873 -1187.56141235 223.47213745 -1187.56085205 222.74945068 C-1187.51881977 210.91349794 -1186.46713643 199.78210325 -1183.1875 188.375 C-1182.97851074 187.62686035 -1182.76952148 186.8787207 -1182.55419922 186.10791016 C-1167.59933199 133.89469957 -1129.24180786 97.89025259 -1082.875 72.125 C-1055.27387985 58.08125825 -1025.40636593 47.98335078 -995.1875 41.375 C-994.18928223 41.15505371 -993.19106445 40.93510742 -992.16259766 40.70849609 C-978.88045566 37.83901447 -965.54339223 35.76657262 -952.0625 34.125 C-951.38542999 34.04191589 -950.70835999 33.95883179 -950.01077271 33.87322998 C-933.76184087 31.90472689 -917.66050421 31.16404893 -901.3125 31.1875 C-900.46000671 31.18843658 -899.60751343 31.18937317 -898.72918701 31.19033813 C-833.31680594 31.3451053 -761.37227126 45.02199318 -707.1875 83.375 C-706.06161974 84.15165352 -704.93529602 84.92766447 -703.80859375 85.703125 C-696.06317613 91.08268904 -688.84319402 96.90362347 -681.71484375 103.06982422 C-679.34739726 105.09290109 -676.92258695 107.04355688 -674.5 109 C-671.13471432 111.73068895 -667.91163929 114.537345 -664.75 117.5 C-635.37589551 144.1275559 -601.07789659 159.94837783 -562.9375 169.6875 C-561.66676636 170.01463989 -561.66676636 170.01463989 -560.37036133 170.34838867 C-540.08187259 175.2734724 -519.27278972 177.66458912 -498.5625 180 C-497.89087326 180.07586964 -497.21924652 180.15173927 -496.52726746 180.22990799 C-462.7649974 184.03666889 -429.52915997 185.53514526 -395.5657196 185.6186409 C-393.169904 185.62488301 -390.77410388 185.63341909 -388.3782959 185.64205933 C-362.46827695 185.7204049 -336.75779046 184.79119259 -311.0625 181.1875 C-309.92406647 181.0313472 -309.92406647 181.0313472 -308.76263428 180.87203979 C-291.73359306 178.5184628 -274.94142221 175.20440451 -258.1875 171.375 C-257.14029785 171.13700684 -256.0930957 170.89901367 -255.01416016 170.65380859 C-215.66008768 161.51910636 -149.06607704 145.34756468 -126.29199219 109.31445312 C-120.73711882 99.56027231 -116.97477977 88.66086173 -113.1875 78.125 C-108.48669496 65.15328344 -101.79456024 53.15800244 -93.1875 42.375 C-92.41664062 41.37855469 -91.64578125 40.38210938 -90.8515625 39.35546875 C-73.25860598 17.29490024 -47.79082449 4.56359533 -20.06396484 0.78515625 C-13.38072241 0.07802391 -6.71245266 -0.0189067 0 0 Z " fill="#F3C903" transform="translate(2219.1875,442.625)"/>
<path d="M0 0 C0.81130371 0.57395508 1.62260742 1.14791016 2.45849609 1.73925781 C12.39630484 8.795667 21.71131137 16.08617863 30.47192383 24.56689453 C32.15550814 26.14584323 33.89548091 27.6430206 35.6484375 29.14453125 C40.61907392 33.46608113 45.28093952 38.09487731 49.93579102 42.75048828 C51.42641615 44.23893237 52.92487017 45.71917277 54.42382812 47.19921875 C60.73344544 53.47208683 66.46782637 60.01986354 72 67 C73.00029127 68.20872989 74.00371163 69.41488462 75.01171875 70.6171875 C83.48563767 80.8720709 90.83429896 91.8023258 98 103 C98.42909668 103.66999023 98.85819336 104.33998047 99.30029297 105.03027344 C149.28349971 183.87170898 164.23117865 279.9161577 144.36328125 370.7109375 C140.99601951 385.38572466 136.89941202 399.76711554 132 414 C131.70013184 414.88671387 131.40026367 415.77342773 131.09130859 416.68701172 C117.02630295 458.04898759 95.82141128 495.46906719 67.29443359 528.47900391 C66.05290575 529.93783424 64.8477646 531.42739609 63.64453125 532.91796875 C57.51898575 540.44586489 50.84123693 547.3739798 44 554.25 C43.08629639 555.17288818 42.17259277 556.09577637 41.23120117 557.04663086 C35.86829736 562.38556532 30.34199833 567.33513186 24.41625977 572.04296875 C22.16583567 573.86568265 20.04507858 575.76546534 17.9375 577.75 C-41.50259416 630.87787177 -128.56955544 658.31562473 -207.25 658.1875 C-207.94353577 658.18689575 -208.63707153 658.1862915 -209.35162354 658.18566895 C-285.849629 658.00652182 -362.67121816 632.92142856 -424 587 C-424.53496094 586.60248535 -425.06992188 586.2049707 -425.62109375 585.79541016 C-446.58354544 570.18039444 -467.56134619 552.26213772 -483.8359375 531.7265625 C-486.10370044 528.86934493 -488.45160756 526.09310665 -490.8125 523.3125 C-550.89882378 451.00522901 -578.10646932 354.84340555 -570.234375 261.51367188 C-566.32203258 219.55379939 -555.38413249 177.98779002 -537 140 C-536.65582031 139.28666504 -536.31164062 138.57333008 -535.95703125 137.83837891 C-534.00461588 133.81666506 -531.99866413 129.82585366 -529.94873047 125.85302734 C-529.04310043 124.08418226 -528.16344217 122.30211155 -527.28515625 120.51953125 C-518.29572834 102.7963922 -506.63477288 86.30323691 -494 71 C-493.24589844 70.05511719 -492.49179688 69.11023437 -491.71484375 68.13671875 C-486.92924413 62.16948959 -481.88566292 56.4999913 -476.6796875 50.90234375 C-474.28149264 48.30488197 -471.95063594 45.66212906 -469.625 43 C-457.37764016 29.40629918 -442.79102276 18.15269825 -428.11328125 7.32421875 C-425.89336526 5.66694144 -423.71214852 3.99016268 -421.54296875 2.26953125 C-406.01629698 -9.91673289 -388.6746761 -19.67232402 -370.85693359 -28.10986328 C-368.99082244 -29.00439934 -367.14575998 -29.93384649 -365.30078125 -30.87109375 C-326.46610348 -50.28597257 -282.02450346 -61.05438423 -239 -65 C-238.24428711 -65.07057617 -237.48857422 -65.14115234 -236.70996094 -65.21386719 C-152.94555973 -72.60139487 -68.16264791 -48.5724285 0 0 Z " fill="#15477A" transform="translate(1528,1294)"/>
<path d="M0 0 C1.16975372 0.01163177 2.33950745 0.02326355 3.54470825 0.0352478 C10.53092498 0.10566173 17.5151677 0.22009414 24.5 0.375 C25.5018634 0.39678314 26.50372681 0.41856628 27.53594971 0.44100952 C76.79625499 1.54545934 135.80998876 2.8731297 173 40 C173.76957031 40.75796875 174.53914063 41.5159375 175.33203125 42.296875 C181.58447898 48.81561096 185.87090125 56.05103016 190 64 C190.46148438 64.85851563 190.92296875 65.71703125 191.3984375 66.6015625 C198.22336831 80.29489501 201.1131994 95.77703305 203.6875 110.72265625 C203.91244141 112.00595825 204.13738281 113.28926025 204.36914062 114.6114502 C204.91695564 117.7402607 205.46049123 120.86974849 206 124 C206.02870178 123.3325325 206.05740356 122.665065 206.0869751 121.97737122 C206.39361152 114.91750575 206.72198724 107.85887141 207.06201172 100.80053711 C207.18555327 98.17969132 207.30387541 95.55859331 207.41650391 92.93725586 C209.71000048 39.87223997 209.71000048 39.87223997 227.14453125 22.9140625 C249.93331578 3.18645798 284.75524292 1.83981885 313.31207275 1.85955811 C314.69628949 1.85696626 316.08050549 1.85395087 317.46472049 1.8505547 C321.22595629 1.84257975 324.98717293 1.84070056 328.74841619 1.83995724 C332.82050783 1.83809029 336.8925899 1.83053576 340.9646759 1.82382202 C349.84179586 1.81031395 358.71891126 1.80422803 367.59603977 1.79981136 C373.13969836 1.79704056 378.68335522 1.79280215 384.22701263 1.78830719 C399.58455419 1.77613276 414.94209438 1.76582443 430.29964066 1.7624321 C431.27986039 1.76221253 432.26008012 1.76199297 433.27000348 1.76176675 C434.74371352 1.76143933 434.74371352 1.76143933 436.24719548 1.7611053 C438.23787642 1.76066184 440.22855735 1.76021528 442.21923828 1.75976562 C443.20667136 1.7595442 444.19410443 1.75932277 445.21145973 1.75909463 C461.25592481 1.75513591 477.30034478 1.73764118 493.3447924 1.7144061 C509.82760795 1.69072871 526.31040079 1.67823219 542.79323363 1.67706418 C552.04425128 1.67614628 561.29520984 1.67036357 570.54621124 1.65224457 C578.41107009 1.63689353 586.27585152 1.63169403 594.14072248 1.63998267 C598.15520416 1.64390472 602.16952966 1.64288384 606.18399239 1.62892532 C609.85363582 1.61628142 613.52300418 1.61729891 617.19264671 1.62951604 C619.15892845 1.6324291 621.12521454 1.62046665 623.09145951 1.60809398 C624.24677855 1.61468382 625.40209759 1.62127367 626.5924263 1.6280632 C627.5956528 1.62746611 628.5988793 1.62686903 629.63250661 1.62625384 C630.41377943 1.74959008 631.19505225 1.87292631 632 2 C636.25387866 8.38081799 634.66927893 19.37220401 633.3125 26.7265625 C628.72933174 42.72945835 618.61638352 54.81928646 604.24902344 62.99658203 C559.11997385 87.90303986 501.39330393 82.39868452 451.66259766 81.63696289 C415.9846465 81.07205439 415.9846465 81.07205439 380.30386353 80.76782227 C378.05852852 80.75615165 375.81321314 80.73926112 373.56796265 80.71655273 C356.61840262 80.5524252 338.65088817 80.61448718 323 88 C321.88044922 88.52013672 321.88044922 88.52013672 320.73828125 89.05078125 C315.15267845 92.05523673 312.33226808 96.15431521 310 102 C307.86165013 109.75649891 309.20064896 117.24164393 310.8125 124.9375 C310.97814453 125.77990234 311.14378906 126.62230469 311.31445312 127.49023438 C311.8279134 130.00715853 312.40358294 132.50154934 313 135 C313.17321777 135.83418457 313.34643555 136.66836914 313.52490234 137.52783203 C314.13090259 139.9184619 314.75906218 141.86803832 316 144 C322.29777028 147.63806753 329.54522169 147.89796646 336.6875 148.625 C337.78255859 148.74617188 338.87761719 148.86734375 340.00585938 148.9921875 C343.3352703 149.35275937 346.66621452 149.68257871 350 150 C351.00434082 150.09933838 352.00868164 150.19867676 353.04345703 150.30102539 C362.85744343 151.17440306 372.65543505 151.19538257 382.5 151.1875 C383.90029953 151.18858765 383.90029953 151.18858765 385.32888794 151.18969727 C403.9904985 151.18812931 422.60858966 150.49727961 441.2512207 149.71386719 C454.34754403 149.16991723 467.39968919 148.79355102 480.50756836 148.98632812 C484.90911238 149.04580367 489.18847299 149.03941239 493.5625 148.51953125 C501.60936592 147.61444822 509.72509679 147.75717555 517.8125 147.75 C519.15068283 147.74799088 519.15068283 147.74799088 520.51589966 147.74594116 C533.70331398 147.75019124 546.7945215 148.23133485 559.9375 149.3125 C560.67384674 149.37135376 561.41019348 149.43020752 562.16885376 149.49084473 C570.35313474 150.16187781 578.45405845 151.14125457 586.55859375 152.46875 C587.28320297 152.58684525 588.00781219 152.70494049 588.75437927 152.82661438 C605.57391716 155.71274838 623.33950306 162.20991223 636 174 C636.8971875 174.81791016 636.8971875 174.81791016 637.8125 175.65234375 C661.60802115 199.92589992 660.38148352 243.18597002 660.23413086 274.42700195 C659.87627225 299.68882217 657.47188122 327.62132644 641 348 C640.41734375 348.75667969 639.8346875 349.51335938 639.234375 350.29296875 C620.73423782 372.87401854 589.22806742 377.76969201 561.87890625 380.69140625 C527.09645493 383.89296074 491.68063101 382.18227646 456.8125 381.5625 C455.6788501 381.54303314 454.5452002 381.52356628 453.37719727 381.50350952 C450.15368553 381.44623259 446.93037077 381.38260989 443.70703125 381.31640625 C442.76761185 381.29967865 441.82819244 381.28295105 440.86030579 381.26571655 C436.59332725 381.17030286 432.39529256 380.9672436 428.15332031 380.48852539 C422.0507439 379.83171586 415.97217968 379.85685969 409.83984375 379.8671875 C408.58872299 379.86586823 407.33760223 379.86454895 406.04856873 379.8631897 C402.70104417 379.8616095 399.35360897 379.86491215 396.00609589 379.87142944 C393.92758547 379.87501711 391.84908198 379.87662183 389.77056885 379.87768555 C373.03311357 379.88834314 356.31225527 380.00827929 339.58520508 380.64404297 C330.01222932 381.00567585 320.45953193 381.07244912 310.88037109 380.96289062 C309.36564209 380.95032227 309.36564209 380.95032227 307.8203125 380.9375 C306.95680176 380.92589844 306.09329102 380.91429688 305.20361328 380.90234375 C302.40867131 380.98754241 299.69019178 381.20936958 296.90942383 381.48413086 C290.81438222 382.06243493 284.74823333 382.22250534 278.62890625 382.31640625 C276.86787819 382.34784981 276.86787819 382.34784981 275.0712738 382.37992859 C271.23508248 382.44624834 267.39883888 382.50538123 263.5625 382.5625 C262.21980793 382.582885 260.87711587 382.60327075 259.53442383 382.62365723 C251.31341008 382.7470004 243.09226003 382.85491654 234.87091064 382.95318604 C231.27051117 382.9967285 227.67017374 383.04385249 224.06982422 383.09130859 C198.2539625 383.41218398 172.53242175 382.91143936 146.75 381.625 C145.46996094 381.56187622 144.18992187 381.49875244 142.87109375 381.43371582 C129.51033388 380.75971937 116.23758162 379.99459885 103 378 C102.08231665 373.34056397 101.86722475 368.84249976 101.89993286 364.11103821 C101.90182627 362.94595152 101.90182627 362.94595152 101.90375793 361.75732774 C101.90912106 359.16280777 101.92164495 356.5683719 101.93408203 353.97387695 C101.93927834 352.1086235 101.94398585 350.24336863 101.94824219 348.37811279 C101.95818027 344.35946184 101.97103123 340.3408343 101.98596573 336.32219887 C102.00913511 329.93137644 102.02236921 323.54055706 102.03366089 317.14970398 C102.06698927 298.97435476 102.10806073 280.7990507 102.17138672 262.6237793 C102.20627652 252.5860264 102.22984956 242.54830885 102.24159515 232.51050156 C102.24827411 227.21705367 102.2603466 221.92375519 102.28662491 216.63036537 C102.38191662 196.87455068 102.35585107 177.20529498 100.67138672 157.50854492 C100.61291132 156.80763627 100.55443593 156.10672761 100.49418855 155.3845793 C99.0372781 138.4883246 96.69465377 119.47150556 84 107 C74.45308399 99.59119539 63.35008218 96.99240337 51.625 95.3125 C50.80741211 95.19302002 49.98982422 95.07354004 49.14746094 94.95043945 C30.13425157 92.49281664 10.74740807 92.8484495 -8.3828125 92.8671875 C-10.85936492 92.86651131 -13.33591728 92.86553868 -15.81246948 92.86428833 C-20.96401613 92.86282671 -26.11554526 92.86491627 -31.26708984 92.86962891 C-37.8133998 92.87533127 -44.35966878 92.87203408 -50.90597725 92.86605644 C-56.00743916 92.86241416 -61.10889163 92.86360603 -66.21035385 92.86618423 C-68.62206909 92.86684308 -71.03378524 92.86606233 -73.44549942 92.86370468 C-100.08808707 92.67568149 -100.08808707 92.67568149 -126.5625 95.3125 C-127.39056152 95.44293701 -128.21862305 95.57337402 -129.07177734 95.70776367 C-141.05425471 97.7181754 -153.98287855 102.00356691 -161.69921875 111.98046875 C-171.32448651 126.92420278 -174.04819495 146.22869878 -174.6328125 163.66796875 C-174.69515579 165.28485344 -174.69515579 165.28485344 -174.75875854 166.93440247 C-174.84464584 169.20572513 -174.92680078 171.47719175 -175.00537109 173.7487793 C-175.12315172 177.13437138 -175.2539143 180.51926459 -175.38671875 183.90429688 C-176.2081011 205.68105254 -176.07219337 227.40550156 -175.64428711 249.18920898 C-174.79537723 292.46196636 -174.93162298 335.71734478 -175 379 C-209.65 379 -244.3 379 -280 379 C-280.66 327.19 -281.32 275.38 -282 222 C-282.33 225.96 -282.66 229.92 -283 234 C-304.5165987 234.81963533 -326.02059283 235.26411632 -347.55081582 235.49864316 C-350.22781311 235.52800002 -352.90479549 235.55850571 -355.58177757 235.58921623 C-404.42156159 236.14493968 -453.26407199 236.32303477 -502.1063565 236.51740968 C-514.79231002 236.56802297 -527.47824648 236.62245654 -540.16418326 236.67708123 C-566.1094395 236.78872054 -592.0547122 236.89597145 -618 237 C-618.01709658 235.41491435 -618.02923107 233.82977473 -618.03930664 232.24462891 C-618.05025108 230.92055527 -618.05025108 230.92055527 -618.06141663 229.56973267 C-617.53314956 207.46651375 -602.54551167 183.63992103 -587.1640625 168.85546875 C-567.68118806 152.15083814 -547.4215103 149.78078979 -522.3203125 149.90625 C-520.91968838 149.91004978 -519.51906375 149.91366692 -518.11843872 149.91711426 C-503.39514214 149.96568989 -488.67439712 150.20528634 -473.95355225 150.46356201 C-438.53510912 151.19876389 -438.53510912 151.19876389 -403.125 150.5 C-401.34222656 150.42845703 -401.34222656 150.42845703 -399.5234375 150.35546875 C-396.68210551 150.24089891 -393.8410002 150.12247375 -391 150 C-389.80305187 146.40915561 -389.81889188 143.10687466 -389.796875 139.3671875 C-389.79117493 138.61591583 -389.78547485 137.86464417 -389.77960205 137.09060669 C-389.77015817 135.49856978 -389.76362049 133.90651338 -389.75976562 132.31445312 C-389.75011845 129.90458892 -389.71911508 127.49559948 -389.6875 125.0859375 C-389.62222723 115.6627177 -389.87319057 107.87414412 -395.125 99.6875 C-407.1138575 88.48052451 -427.33882681 89.84258146 -442.5859375 89.8671875 C-444.04247566 89.86608018 -445.4990136 89.86464541 -446.95555115 89.86291504 C-450.92816826 89.85998726 -454.90074433 89.8643723 -458.87335587 89.87102509 C-461.38890839 89.8750221 -463.90445872 89.87752672 -466.42001343 89.87969971 C-495.32217401 89.9081399 -524.22397537 90.07392278 -553.12506104 90.31939697 C-557.54785307 90.3569421 -561.97064788 90.39077982 -566.39349365 90.42132568 C-613.50812059 87.44489228 -613.50812059 87.44489228 -655.7421875 102.52734375 C-667.70506312 115.1746625 -667.16037467 135.78631129 -667.1328125 152.0078125 C-667.13499535 153.88539246 -667.13499535 153.88539246 -667.13722229 155.80090332 C-667.13908542 159.20165793 -667.13599717 162.60231671 -667.12917709 166.00305939 C-667.1249776 168.13637755 -667.12202634 170.26969463 -667.11929321 172.40301514 C-667.10409157 182.93547902 -667.06008512 193.46770213 -667 204 C-666.99574257 204.75879456 -666.99148514 205.51758911 -666.98709869 206.29937744 C-666.93150301 215.99371742 -666.85064566 225.68746721 -666.73553467 235.38128662 C-666.70246839 238.18615689 -666.67554003 240.99097671 -666.65411377 243.79595947 C-667.65050991 270.05631611 -667.65050991 270.05631611 -657 293 C-649.91873447 299.76753858 -641.46123978 302.23371066 -631.875 303.125 C-630.67798462 303.24174072 -630.67798462 303.24174072 -629.45678711 303.36083984 C-595.08249811 306.4110744 -560.2111353 305.13598193 -525.76157761 304.53493881 C-491.3706328 303.93760727 -457.13275907 303.74533994 -422.75 304.875 C-421.51351715 304.91420563 -420.2770343 304.95341125 -419.00308228 304.99380493 C-358.28723051 306.96361624 -358.28723051 306.96361624 -338 327 C-322.86812147 343.88066706 -318.3288292 362.85136353 -319 385 C-345.46510543 393.82170181 -380.32756124 389.416527 -407.74464488 389.33711338 C-414.08769764 389.32178792 -420.4307508 389.32324474 -426.77381897 389.32244873 C-437.40629361 389.31878613 -448.0386966 389.30406668 -458.67114258 389.28125 C-469.52791896 389.25797009 -480.38465393 389.24381727 -491.24145508 389.24023438 C-491.91157031 389.24001161 -492.58168554 389.23978884 -493.2721073 389.23955932 C-494.62283844 389.2391166 -495.97356959 389.23867458 -497.32430074 389.23823325 C-497.99117942 389.23801369 -498.6580581 389.23779412 -499.34514523 389.2375679 C-500.01073304 389.23735192 -500.67632086 389.23713593 -501.36207801 389.2369134 C-512.47371024 389.23295799 -523.58533508 389.22027976 -534.69695973 389.20722103 C-538.42581548 389.20316743 -542.15467087 389.20021932 -545.88352776 389.19742584 C-612.73809032 389.13876634 -612.73809032 389.13876634 -635.1875 386.75 C-636.4132373 386.62214111 -637.63897461 386.49428223 -638.90185547 386.36254883 C-664.25643005 383.54482939 -688.95891074 378.13386993 -712 367 C-712.64308105 366.69868164 -713.28616211 366.39736328 -713.94873047 366.08691406 C-723.83844567 361.41519156 -731.29936809 355.72344859 -739 348 C-740.07314453 347.01580078 -740.07314453 347.01580078 -741.16796875 346.01171875 C-773.13647391 316.2127329 -773.34387221 270.48746592 -775 230 C-775.03029297 229.27689636 -775.06058594 228.55379272 -775.09179688 227.80877686 C-775.52026037 217.54142274 -775.81671278 207.27451778 -776 197 C-776.0143811 196.22485046 -776.02876221 195.44970093 -776.0435791 194.65106201 C-776.91244201 146.0302277 -777.7060611 83.22140798 -743 45 C-742.22785156 44.14664063 -741.45570312 43.29328125 -740.66015625 42.4140625 C-735.0083894 36.46765378 -729.14976069 31.99629008 -722 28 C-720.97519531 27.41476563 -719.95039062 26.82953125 -718.89453125 26.2265625 C-705.47672717 19.02216124 -691.06958793 15.3017829 -676.125 12.75 C-674.80169678 12.52340698 -674.80169678 12.52340698 -673.45166016 12.29223633 C-656.01761079 9.5543648 -638.27490987 8.61380456 -620.66015625 7.890625 C-619.66025225 7.84875313 -618.66034824 7.80688126 -617.63014412 7.76374054 C-589.67942708 6.62672452 -561.71269071 6.68874422 -533.74439621 6.74245453 C-529.38218058 6.75063108 -525.01996702 6.75419784 -520.65774536 6.75738525 C-486.91241524 6.78532062 -453.17104177 6.89375183 -419.4375 7.875 C-418.73693859 7.89471359 -418.03637718 7.91442719 -417.31458664 7.93473816 C-379.33167007 9.00758746 -379.33167007 9.00758746 -362.5 12.6875 C-361.73429687 12.85266113 -360.96859375 13.01782227 -360.1796875 13.18798828 C-336.9929589 18.50790749 -312.36829225 29.99751018 -298.77734375 50.32421875 C-296.6740732 53.79937664 -294.81971815 57.36872386 -293 61 C-292.52820312 61.92039062 -292.05640625 62.84078125 -291.5703125 63.7890625 C-283.01207155 82.2344638 -281.30919833 103.85697038 -280.24609375 123.92578125 C-280.04415828 126.44837193 -279.64991194 128.57551743 -279 131 C-278.90295776 129.87694458 -278.90295776 129.87694458 -278.80395508 128.73120117 C-276.02848954 97.61978103 -269.66504233 66.82383658 -248 43 C-247.39929687 42.30648437 -246.79859375 41.61296875 -246.1796875 40.8984375 C-227.06026874 20.1236578 -196.05250156 9.50131744 -169 5 C-168.03790619 4.83729111 -167.07581238 4.67458221 -166.08456421 4.50694275 C-160.8885796 3.77355071 -155.66451765 3.68410533 -150.42553711 3.51928711 C-149.2761113 3.4801268 -148.12668549 3.44096649 -146.94242859 3.40061951 C-143.1375224 3.27216996 -139.33245729 3.14948608 -135.52734375 3.02734375 C-133.52714867 2.96157329 -131.52695366 2.89580058 -129.52676684 2.82977968 C-123.211562 2.62143347 -116.89623157 2.41725431 -110.58081055 2.21557617 C-104.87393651 2.03326174 -99.16724865 1.8460829 -93.46069336 1.65405273 C-62.30591947 0.60670955 -31.17666684 -0.38372763 0 0 Z M-280 149 C-279 151 -279 151 -279 151 Z M209 169 C209 210.91 209 252.82 209 296 C254.94530974 296.17845878 254.94530974 296.17845878 300.890625 296.35546875 C307.12565109 296.3793828 313.36067714 296.40330642 319.59570312 296.42724609 C320.37687201 296.43024503 321.1580409 296.43324396 321.96288157 296.43633378 C334.47876134 296.48439656 346.99463898 296.53299696 359.51051587 296.58180541 C372.41092841 296.63210112 385.31134316 296.68179713 398.21176004 296.73096704 C405.43419968 296.75851175 412.6566381 296.78631932 419.8790741 296.81480408 C422.65843702 296.82573272 425.43780004 296.83663596 428.21716309 296.84753418 C428.89401812 296.85019741 429.57087316 296.85286065 430.26823896 296.85560459 C441.11404152 296.89813747 451.95985742 296.93258416 462.80569887 296.96357012 C469.29783524 296.98349119 475.78969652 297.01571908 482.28168821 297.0633378 C485.98355863 297.08931865 489.68544174 297.1076194 493.38736439 297.12432003 C495.02824814 297.13363318 496.66911711 297.14646777 498.30993938 297.1634531 C515.19919159 297.33666161 532.57420876 296.8310486 546.31640625 285.66015625 C553.21303179 278.85953942 555.04256952 270.83268834 555.4375 261.4375 C555.32098106 249.91377715 552.63962714 237.91888143 549 227 C536.59121605 221.78793978 522.16001443 221.94209206 508.94921875 221.2265625 C505.01476594 221.00084711 501.08665948 220.72461777 497.15625 220.4375 C461.14660513 217.90492572 424.94940388 218.58084891 388.88839722 219.56991577 C257.67001692 223.13098334 257.67001692 223.13098334 234.56420898 203.52416992 C231.52532547 200.56307272 229.17622465 197.09029776 226.75 193.625 C225.91227051 192.4486499 225.91227051 192.4486499 225.05761719 191.24853516 C220.90862537 185.38911851 216.88778561 179.44556893 212.98339844 173.42041016 C212.01253257 171.93128411 211.00984146 170.46297544 210 169 C209.67 169 209.34 169 209 169 Z " fill="#154779" transform="translate(1852,2086)"/>
<path d="M0 0 C23.59653106 22.08251263 35.84793373 56.10298409 37.47810364 87.85794067 C37.53444579 90.05936705 37.56142431 92.25882915 37.57421875 94.4609375 C37.58127838 95.2723822 37.58833801 96.0838269 37.59561157 96.91986084 C37.71512364 114.7243986 37.63505038 132.20897522 34.37109375 149.7734375 C34.17773438 150.83256348 33.984375 151.89168945 33.78515625 152.98291016 C25.46314312 197.33487365 10.09716023 239.77938046 -10.62890625 279.7734375 C-10.94126221 280.37949829 -11.25361816 280.98555908 -11.57543945 281.60998535 C-23.08175693 303.93272433 -36.28033477 324.5865217 -50.74072266 345.09179688 C-52.45529318 347.52686834 -54.15962251 349.96863622 -55.859375 352.4140625 C-66.08431769 367.08673046 -76.82840251 381.32716617 -88.62890625 394.7734375 C-89.46421875 395.7325 -90.29953125 396.6915625 -91.16015625 397.6796875 C-98.44875148 405.84642673 -106.38043497 413.26659423 -114.40283203 420.70458984 C-118.01656514 424.0630867 -121.60252528 427.4509327 -125.19140625 430.8359375 C-137.58750211 442.50636659 -137.58750211 442.50636659 -143.75244141 448.26538086 C-146.97769593 451.27887625 -150.18843844 454.30462201 -153.3671875 457.3671875 C-161.60704099 465.26344192 -170.21645439 472.34816141 -179.39892578 479.12158203 C-181.66457011 480.79985547 -183.91136714 482.50111276 -186.15625 484.20703125 C-212.53094226 504.12523004 -241.50174458 520.26843907 -270.62890625 535.7734375 C-271.30969238 536.13985352 -271.99047852 536.50626953 -272.69189453 536.88378906 C-322.40251598 563.49949893 -384.86156749 581.13907765 -440.62890625 564.7734375 C-469.86453124 555.7458266 -496.6734265 537.35745063 -511.671875 510.2109375 C-533.07134369 467.12856344 -527.20744827 418.27992214 -518.62890625 372.7734375 C-518.396875 371.53110352 -518.16484375 370.28876953 -517.92578125 369.00878906 C-512.74789271 341.96786825 -503.21982167 316.67349912 -491.62890625 291.7734375 C-491.17902344 290.79681152 -490.72914063 289.82018555 -490.265625 288.81396484 C-476.86169623 259.78982368 -461.16172089 231.83727402 -442.62890625 205.7734375 C-442.07138672 204.9892041 -441.51386719 204.2049707 -440.93945312 203.39697266 C-424.61236427 180.50436959 -407.612749 158.37670582 -388.43359375 137.79296875 C-385.94826086 135.12506401 -383.50011819 132.42612857 -381.06640625 129.7109375 C-360.53572991 106.84554525 -360.53572991 106.84554525 -349.8125 97.67578125 C-347.62113479 95.76666701 -345.48583212 93.80366049 -343.35595703 91.82641602 C-338.25963227 87.09942529 -333.06835846 82.56077247 -327.6484375 78.203125 C-325.42223465 76.41179489 -323.21402509 74.60605447 -321.015625 72.78125 C-305.27608184 59.76292799 -288.54923934 48.1923224 -271.62890625 36.7734375 C-270.8282373 36.23235352 -270.02756836 35.69126953 -269.20263672 35.13378906 C-266.82652477 33.53054838 -264.44726145 31.93212426 -262.06640625 30.3359375 C-261.36515625 29.86406006 -260.66390625 29.39218262 -259.94140625 28.90600586 C-251.52736094 23.29233456 -242.9914587 18.28758768 -233.81640625 14.0234375 C-226.50718863 10.60163356 -219.25815237 7.09853966 -212.0625 3.4453125 C-148.85304773 -28.4939101 -60.05163416 -50.86096801 0 0 Z " fill="#15477A" transform="translate(526.62890625,471.2265625)"/>
<path d="M0 0 C4.9321771 0.00344342 9.86421199 -0.0060194 14.79636014 -0.02250177 C42.81475115 -0.11387156 70.78841966 -0.06337946 98.76584256 1.68867987 C99.75292265 1.74997769 100.74000275 1.81127551 101.75699437 1.87443084 C126.40763039 3.45263088 150.72829177 6.69592022 174.31271756 14.31367987 C175.40858181 14.66317694 175.40858181 14.66317694 176.52658474 15.01973456 C204.25212676 24.06594224 225.44943584 41.8677205 238.81467068 67.80586737 C245.23418658 80.8929964 249.17843332 94.57328159 252.12521756 108.81367987 C252.32026883 109.74841132 252.5153201 110.68314276 252.71628201 111.64619941 C255.9643929 128.58451743 256.62268246 145.75474285 256.57834256 162.95430487 C256.57969717 164.85980261 256.58164422 166.7653 256.5841409 168.67079657 C256.58705772 172.63040501 256.58290928 176.58992207 256.57345974 180.54951972 C256.56209711 185.5459326 256.56881428 190.54213173 256.58033764 195.5385372 C256.65990967 236.11572991 256.65990967 236.11572991 254.31271756 256.31367987 C254.16673123 257.59855292 254.0207449 258.88342597 253.87033474 260.20723456 C253.49305332 263.1733557 253.05726227 266.11512839 252.56271756 269.06367987 C252.30893338 270.59424018 252.30893338 270.59424018 252.05002224 272.15572089 C246.53833587 303.69617484 234.21511666 332.72816748 207.57443631 352.04024237 C176.20480825 373.90506097 138.24044856 377.78337653 101.07614529 379.37959784 C100.05982427 379.42349072 99.04350325 379.4673836 97.99638462 379.51260656 C74.84456757 380.48812856 51.71462193 380.57778679 28.54595125 380.51646775 C22.84202704 380.50363658 17.13809867 380.50276523 11.43416226 380.50041693 C0.71883541 380.49429434 -9.99644875 380.47801391 -20.71175712 380.45771796 C-32.94719105 380.4350648 -45.18262743 380.42429299 -57.41807723 380.41432709 C-82.50783562 380.393635 -107.5975566 380.35864655 -132.68728244 380.31367987 C-133.98350201 384.20233856 -134.06034764 388.00252515 -134.24978244 392.06367987 C-134.31238254 393.37985297 -134.31238254 393.37985297 -134.37624729 394.72261542 C-134.99820959 409.14833284 -135.00835067 423.53569938 -133.91775119 437.93477362 C-132.35702052 460.81667244 -133.5578358 487.49977388 -148.78884494 505.84492987 C-157.60510461 515.19078818 -168.07296473 519.52325244 -180.06228244 523.62617987 C-181.33215488 524.07117097 -182.60168862 524.5171298 -183.87087619 524.9640705 C-196.64484735 529.4247139 -196.64484735 529.4247139 -201.85744846 529.47481269 C-202.66831409 529.48442023 -203.47917972 529.49402777 -204.31461704 529.50392646 C-205.18138568 529.50817633 -206.04815433 529.51242621 -206.94118869 529.51680487 C-207.83845172 529.52250495 -208.73571476 529.52820502 -209.66016757 529.53407782 C-211.55387817 529.54350926 -213.44760503 529.55005442 -215.34133518 529.55391425 C-218.24274585 529.56365625 -221.1434587 529.5947114 -224.04470432 529.62617987 C-225.88519491 529.63270676 -227.72569055 529.63795846 -229.56618869 529.64180487 C-230.43498157 529.65415168 -231.30377445 529.66649848 -232.19889438 529.67921942 C-233.00660785 529.67621833 -233.81432132 529.67321723 -234.64651096 529.67012519 C-235.3561449 529.67377082 -236.06577884 529.67741645 -236.79691684 529.68117255 C-239.44622611 529.16613898 -240.10795891 528.52980901 -241.68728244 526.31367987 C-242.00958872 523.55945547 -242.14723726 521.02367872 -242.15520847 518.26503485 C-242.16931683 517.43496523 -242.1834252 516.6048956 -242.19796109 515.74967235 C-242.24182805 512.95688758 -242.26450743 510.16432694 -242.2873801 507.37129706 C-242.31447875 505.37189986 -242.34288679 503.37252004 -242.37250888 501.37315863 C-242.44956627 495.92525403 -242.50842024 490.47728251 -242.56431997 485.02912539 C-242.6263197 479.30459838 -242.70554138 473.58031115 -242.78307712 467.85597724 C-242.92795195 456.97438837 -243.05825115 446.09267759 -243.18294549 435.21084064 C-243.36515685 419.35945338 -243.56761555 403.50832316 -243.7717303 387.65720481 C-243.80212461 385.29523964 -243.83251821 382.93327446 -243.86291111 380.57130927 C-243.87782545 379.41497528 -243.89273979 378.25864129 -243.90810609 377.06726688 C-243.99508394 370.28495542 -244.07745133 363.50260825 -244.1557672 356.72019142 C-244.46785637 329.06135026 -244.46785637 329.06135026 -245.22780979 301.41231269 C-246.05402906 278.26251477 -245.61202114 255.23184252 -244.69900119 232.09102362 C-244.64689092 230.74248966 -244.59495567 229.39394891 -244.54318798 228.04540175 C-244.27249972 220.99424018 -243.99675051 213.94329916 -243.7158469 206.8925373 C-243.45781982 200.4126568 -243.21109512 193.93241254 -242.96962506 187.45189583 C-242.75863989 181.80317473 -242.53960889 176.15480008 -242.3147127 170.50661588 C-242.18198572 167.17018878 -242.0530645 163.83374357 -241.93045223 160.49692076 C-240.27403427 115.75772166 -235.35679023 69.90653898 -201.19509494 37.41914862 C-172.05766234 10.90457521 -130.25243543 5.55406638 -92.66648662 2.47610968 C-90.86601394 2.32834805 -89.06580898 2.17733325 -87.26563632 2.02596015 C-58.22982122 -0.31416442 -29.10718876 -0.02729303 0 0 Z M-116.68728244 107.31367987 C-132.16471405 124.98330743 -134.57729452 145.81333333 -136.68728244 168.31367987 C-136.76075901 169.08985663 -136.83423557 169.86603339 -136.90993869 170.66573066 C-138.04097051 183.15220157 -138.01714539 195.70401937 -137.34925449 208.21550483 C-136.51567928 223.93977736 -136.36193854 239.67750301 -136.15505588 255.41939276 C-136.10388314 259.25528478 -136.04870876 263.09111931 -135.99392307 266.92696112 C-135.88790759 274.38915141 -135.78614789 281.85139106 -135.68728244 289.31367987 C-88.32097303 290.66634282 -40.96329067 291.54410156 6.42343152 291.61873358 C9.82728402 291.62607647 13.23106483 291.63929239 16.63489163 291.65425605 C38.61684227 291.74381106 60.53055959 291.61353394 82.46506131 290.04414862 C83.26919524 289.99005646 84.07332917 289.93596431 84.90183079 289.88023299 C103.781953 288.56617167 122.73797263 285.42166521 136.19162381 270.93477362 C146.43424828 258.27768151 148.10603389 241.02501761 149.31271756 225.31367987 C149.40029324 224.24536933 149.48786892 223.17705878 149.57809842 222.07637519 C150.42520213 210.49047498 150.49886625 198.91921207 150.49802029 187.30586737 C150.50020914 183.95157194 150.51844156 180.59760512 150.53732693 177.24336737 C150.92764995 140.73317715 150.92764995 140.73317715 135.20334256 108.90352362 C113.47394816 90.63107834 69.16632189 92.66817036 42.31271756 91.31367987 C41.22797146 91.25583319 40.14322537 91.19798651 39.02560818 91.13838691 C-42.99078263 83.21842112 -42.99078263 83.21842112 -116.68728244 107.31367987 Z " fill="#15477A" transform="translate(818.6872824430466,2094.6863201260567)"/>
<path d="M0 0 C4.36221562 0.00817655 8.72442919 0.01174331 13.08665085 0.01493073 C46.83198097 0.04286609 80.57335444 0.1512973 114.30689621 1.13254547 C115.00745762 1.15225906 115.70801903 1.17197266 116.42980957 1.19228363 C154.41272614 2.26513293 154.41272614 2.26513293 171.24439621 5.94504547 C172.01009933 6.1102066 172.77580246 6.27536774 173.56470871 6.44553375 C196.75143731 11.76545296 221.37610396 23.25505566 234.96705246 43.58176422 C237.07032301 47.05692211 238.92467805 50.62626933 240.74439621 54.25754547 C241.21619308 55.1779361 241.68798996 56.09832672 242.17408371 57.04660797 C253.08775528 80.56862062 253.88967973 109.39944726 253.91236496 134.88645172 C253.91559972 136.25046061 253.91896519 137.6144692 253.92245102 138.97847748 C253.92838201 141.82305448 253.93029767 144.66760141 253.92969894 147.51218414 C253.92961848 150.35730203 253.93644288 153.20225614 253.95020676 156.04734039 C254.0638895 179.92398851 252.73393665 203.4585598 250.74439621 227.25754547 C229.22846661 228.0870144 207.72337963 228.5216664 186.19358039 228.75618863 C183.51658309 228.78554549 180.83960072 228.81605118 178.16261864 228.8467617 C129.32283462 229.40248515 80.48032422 229.58058024 31.63803971 229.77495515 C18.95208618 229.82556844 6.26614973 229.88000201 -6.41978705 229.9346267 C-32.36504329 230.04626601 -58.31031599 230.15351692 -84.25560379 230.25754547 C-84.27270037 228.67245982 -84.28483486 227.0873202 -84.29491043 225.50217438 C-84.30585487 224.17810074 -84.30585487 224.17810074 -84.31702042 222.82727814 C-83.78875335 200.72405922 -68.80111546 176.8974665 -53.41966629 162.11301422 C-33.93679185 145.40838361 -13.67711409 143.03833526 11.42408371 143.16379547 C12.82470783 143.16759525 14.22533246 143.1712124 15.62595749 143.17465973 C30.34925407 143.22323536 45.06999909 143.46283182 59.79084396 143.72110748 C95.20928709 144.45630937 95.20928709 144.45630937 130.61939621 143.75754547 C132.40216965 143.6860025 132.40216965 143.6860025 134.22095871 143.61301422 C137.06229069 143.49844438 139.90339601 143.38001922 142.74439621 143.25754547 C143.94134434 139.66670108 143.92550433 136.36442013 143.94752121 132.62473297 C143.95322128 131.8734613 143.95892136 131.12218964 143.96479416 130.34815216 C143.97423804 128.75611525 143.98077572 127.16405885 143.98463058 125.5719986 C143.99427776 123.1621344 144.02528113 120.75314495 144.05689621 118.34348297 C144.12216898 108.92026317 143.87120564 101.13168959 138.61939621 92.94504547 C126.63053871 81.73806999 106.4055694 83.10012693 91.15845871 83.12473297 C89.70192055 83.12362565 88.24538261 83.12219089 86.78884506 83.12046051 C82.81622795 83.11753273 78.84365188 83.12191777 74.87104034 83.12857056 C72.35548782 83.13256757 69.83993749 83.13507219 67.32438278 83.13724518 C38.4222222 83.16568537 9.52042084 83.33146825 -19.38066483 83.57694244 C-23.80345686 83.61448757 -28.22625167 83.64832529 -32.64909744 83.67887115 C-79.76372438 80.70243775 -79.76372438 80.70243775 -121.99779129 95.78488922 C-133.96066691 108.43220797 -133.41597846 129.04385676 -133.38841629 145.26535797 C-133.39059914 147.14293793 -133.39059914 147.14293793 -133.39282608 149.05844879 C-133.39468921 152.4592034 -133.39160096 155.85986218 -133.38478088 159.26060486 C-133.38058139 161.39392302 -133.37763013 163.5272401 -133.374897 165.66056061 C-133.35969536 176.19302449 -133.31568891 186.7252476 -133.25560379 197.25754547 C-133.25134636 198.01634003 -133.24708893 198.77513458 -133.24270248 199.55692291 C-133.1871068 209.25126289 -133.10624945 218.94501268 -132.99113846 228.63883209 C-132.95807218 231.44370236 -132.93114382 234.24852218 -132.90971756 237.05350494 C-133.9061137 263.31386159 -133.9061137 263.31386159 -123.25560379 286.25754547 C-116.17433826 293.02508405 -107.71684357 295.49125613 -98.13060379 296.38254547 C-96.93358841 296.49928619 -96.93358841 296.49928619 -95.7123909 296.61838531 C-61.3381019 299.66861987 -26.46673909 298.3935274 7.9828186 297.79248428 C42.37376341 297.19515274 76.61163714 297.00288541 110.99439621 298.13254547 C112.23087906 298.1717511 113.46736191 298.21095673 114.74131393 298.2513504 C175.4571657 300.22116171 175.4571657 300.22116171 195.74439621 320.25754547 C210.87627474 337.13821253 215.41556701 356.108909 214.74439621 378.25754547 C188.27929078 387.07924728 153.41683497 382.67407247 125.99975133 382.59465885 C119.65669857 382.57933339 113.31364541 382.58079021 106.97057724 382.5799942 C96.3381026 382.5763316 85.70569961 382.56161215 75.07325363 382.53879547 C64.21647725 382.51551556 53.35974228 382.50136274 42.50294113 382.49777985 C41.8328259 382.49755708 41.16271067 382.49733431 40.47228891 382.49710479 C39.12155777 382.49666207 37.77082662 382.49622005 36.42009547 382.49577872 C35.75321679 382.49555916 35.08633811 382.49533959 34.39925098 382.49511337 C33.73366317 382.49489739 33.06807535 382.4946814 32.3823182 382.49445887 C21.27068597 382.49050346 10.15906113 382.47782523 -0.95256352 382.4647665 C-4.68141927 382.4607129 -8.41027466 382.4577648 -12.13913155 382.45497131 C-78.99369411 382.39631181 -78.99369411 382.39631181 -101.44310379 380.00754547 C-102.66884109 379.87968658 -103.8945784 379.7518277 -105.15745926 379.6200943 C-130.51203384 376.80237486 -155.21451453 371.3914154 -178.25560379 360.25754547 C-178.89868484 359.95622711 -179.5417659 359.65490875 -180.20433426 359.34445953 C-190.09404946 354.67273703 -197.55497188 348.98099407 -205.25560379 341.25754547 C-206.32874832 340.27334625 -206.32874832 340.27334625 -207.42357254 339.26926422 C-239.3920777 309.47027837 -239.599476 263.74501139 -241.25560379 223.25754547 C-241.28589676 222.53444183 -241.31618973 221.8113382 -241.34740067 221.06632233 C-241.77586416 210.79896821 -242.07231657 200.53206325 -242.25560379 190.25754547 C-242.26998489 189.48239594 -242.284366 188.7072464 -242.29918289 187.90860748 C-243.1680458 139.28777317 -243.96166489 76.47895346 -209.25560379 38.25754547 C-208.48345535 37.4041861 -207.71130692 36.55082672 -206.91576004 35.67160797 C-201.26399319 29.72519925 -195.40536448 25.25383555 -188.25560379 21.25754547 C-187.2307991 20.6723111 -186.20599442 20.08707672 -185.15013504 19.48410797 C-171.73233096 12.27970672 -157.32519172 8.55932837 -142.38060379 6.00754547 C-141.05730057 5.78095245 -141.05730057 5.78095245 -139.70726395 5.5497818 C-122.27321458 2.81191027 -104.53051366 1.87135003 -86.91576004 1.14817047 C-85.91585604 1.1062986 -84.91595203 1.06442673 -83.88574791 1.02128601 C-55.93503087 -0.11573 -27.9682945 -0.05371031 0 0 Z " fill="#F2C803" transform="translate(1318.2556037902832,2092.7424545288086)"/>
<path d="M0 0 C5.67585051 5.6533273 9.55194358 11.77997883 13 19 C13.51433594 20.04220703 13.51433594 20.04220703 14.0390625 21.10546875 C18.61899987 32.17008381 16.78456739 45.50975805 12.6640625 56.375 C-1.47520869 87.17604146 -33.64633145 104.77905994 -64.14013672 116.17333984 C-154.06136308 148.44899426 -264.28371587 149.64361583 -390.40625 105.6875 C-413.57035675 94.74284822 -437.1381482 77.75165854 -446.5 53 C-450.54083946 40.41829532 -449.38500952 28.84836505 -443.8125 16.875 C-425.93996187 -16.46928755 -383.86099758 -32.85684222 -350 -44 C-349.12102051 -44.29003906 -348.24204102 -44.58007812 -347.33642578 -44.87890625 C-268.44991511 -70.19106701 -167.85645437 -67.50582368 0 0 Z " fill="#15477A" transform="translate(1536,61)"/>
</svg>
